<?xml version="1.0" encoding="utf-8"?>
<!-- Generator: Adobe Illustrator 24.3.0, SVG Export Plug-In . SVG Version: 6.00 Build 0)  -->
<svg version="1.1" id="OBJECTS" xmlns="http://www.w3.org/2000/svg" xmlns:xlink="http://www.w3.org/1999/xlink" x="0px" y="0px"
	 viewBox="0 0 500 500" style="enable-background:new 0 0 500 500;" xml:space="preserve">
<style type="text/css">
	.st0{fill:none;stroke:#FFFFFF;stroke-width:2.1445;stroke-linecap:round;stroke-linejoin:round;stroke-miterlimit:10;}
	.st1{fill:#FFFFFF;stroke:#FFFFFF;stroke-miterlimit:10;}
</style>
<g>
	<g>
		<g>
			<path class="st0" d="M214.42,161.31c0,0-3.2-15.29,13.2-18.85c16.4-3.56,22.27-11.64,22.27-11.64"/>
			<path class="st0" d="M249.9,130.83"/>
			<path class="st0" d="M249.9,153.83c0,0-8.73-15,0-15"/>
			<path class="st0" d="M243.63,153.83c0,0-1.26-10.88-5.49-9.16C233.91,146.38,243.63,153.83,243.63,153.83z"/>
			<path class="st0" d="M241.8,132.43c0,0-32.78-62.47,8.09-62.47"/>
			<path class="st0" d="M249.9,124.76c0,0-17.42-43.25-0.03-43.25"/>
			<path class="st0" d="M246.02,128.88c0,0-25.33-53.54,3.88-53.54"/>
			<path class="st1" d="M238.53,134.03c0,1.05-0.85,1.9-1.9,1.9c-1.05,0-1.9-0.85-1.9-1.9s0.85-1.9,1.9-1.9
				C237.68,132.13,238.53,132.98,238.53,134.03z"/>
			<g>
				<path class="st1" d="M236.63,68.27c0,1.05-0.85,1.9-1.9,1.9s-1.9-0.85-1.9-1.9c0-1.05,0.85-1.9,1.9-1.9
					S236.63,67.22,236.63,68.27z"/>
				<path class="st1" d="M232.28,71.86c0,1.05-0.85,1.9-1.9,1.9s-1.9-0.85-1.9-1.9c0-1.05,0.85-1.9,1.9-1.9
					S232.28,70.81,232.28,71.86z"/>
				<path class="st1" d="M229.13,76.61c0,1.05-0.85,1.9-1.9,1.9s-1.9-0.85-1.9-1.9c0-1.05,0.85-1.9,1.9-1.9
					S229.13,75.56,229.13,76.61z"/>
				<path class="st1" d="M227.23,82.1c0,1.05-0.85,1.9-1.9,1.9s-1.9-0.85-1.9-1.9c0-1.05,0.85-1.9,1.9-1.9S227.23,81.05,227.23,82.1
					z"/>
				<path class="st1" d="M226.43,88.05c0,1.05-0.85,1.9-1.9,1.9c-1.05,0-1.9-0.85-1.9-1.9s0.85-1.9,1.9-1.9
					C225.58,86.15,226.43,87,226.43,88.05z"/>
				<path class="st1" d="M226.43,93.71c0,1.05-0.85,1.9-1.9,1.9c-1.05,0-1.9-0.85-1.9-1.9c0-1.05,0.85-1.9,1.9-1.9
					C225.58,91.81,226.43,92.66,226.43,93.71z"/>
				<path class="st1" d="M227.23,99.38c0,1.05-0.85,1.9-1.9,1.9s-1.9-0.85-1.9-1.9c0-1.05,0.85-1.9,1.9-1.9
					S227.23,98.33,227.23,99.38z"/>
				<path class="st1" d="M228.66,105.04c0,1.05-0.85,1.9-1.9,1.9c-1.05,0-1.9-0.85-1.9-1.9c0-1.05,0.85-1.9,1.9-1.9
					C227.81,103.14,228.66,103.99,228.66,105.04z"/>
				<path class="st1" d="M229.7,110.02c0,0.81-0.66,1.47-1.47,1.47c-0.81,0-1.47-0.66-1.47-1.47c0-0.81,0.66-1.47,1.47-1.47
					C229.05,108.55,229.7,109.2,229.7,110.02z"/>
				<path class="st1" d="M231.18,114.14c0,0.68-0.55,1.23-1.23,1.23c-0.68,0-1.23-0.55-1.23-1.23c0-0.68,0.55-1.23,1.23-1.23
					C230.63,112.91,231.18,113.46,231.18,114.14z"/>
				<path class="st1" d="M232.68,117.51c0,0.52-0.42,0.95-0.95,0.95c-0.52,0-0.95-0.42-0.95-0.95s0.42-0.95,0.95-0.95
					C232.26,116.56,232.68,116.99,232.68,117.51z"/>
				<path class="st1" d="M233.64,120.35c0,0.38-0.31,0.69-0.69,0.69c-0.38,0-0.69-0.31-0.69-0.69c0-0.38,0.31-0.69,0.69-0.69
					C233.33,119.66,233.64,119.97,233.64,120.35z"/>
			</g>
			<path class="st1" d="M233.64,136.17c0,1.05-0.85,1.9-1.9,1.9c-1.05,0-1.9-0.85-1.9-1.9s0.85-1.9,1.9-1.9
				C232.79,134.27,233.64,135.12,233.64,136.17z"/>
			<path class="st1" d="M232.42,52.67c0,1.05-0.85,1.9-1.9,1.9s-1.9-0.85-1.9-1.9s0.85-1.9,1.9-1.9S232.42,51.62,232.42,52.67z"/>
			<path class="st1" d="M228.49,137.83c0,1.05-0.85,1.9-1.9,1.9c-1.05,0-1.9-0.85-1.9-1.9c0-1.05,0.85-1.9,1.9-1.9
				C227.64,135.93,228.49,136.78,228.49,137.83z"/>
			<path class="st1" d="M185.37,89.48c0,1.05-0.85,1.9-1.9,1.9c-1.05,0-1.9-0.85-1.9-1.9c0-1.05,0.85-1.9,1.9-1.9
				C184.52,87.58,185.37,88.43,185.37,89.48z"/>
			<path class="st1" d="M191.76,104.95c0,1.05-0.85,1.9-1.9,1.9s-1.9-0.85-1.9-1.9c0-1.05,0.85-1.9,1.9-1.9
				S191.76,103.9,191.76,104.95z"/>
			<path class="st1" d="M193.35,109.51c0,0.88-0.71,1.59-1.59,1.59c-0.88,0-1.59-0.71-1.59-1.59c0-0.88,0.71-1.59,1.59-1.59
				C192.64,107.92,193.35,108.63,193.35,109.51z"/>
			<path class="st1" d="M223.27,139.35c0,1.05-0.85,1.9-1.9,1.9c-1.05,0-1.9-0.85-1.9-1.9c0-1.05,0.85-1.9,1.9-1.9
				C222.42,137.45,223.27,138.3,223.27,139.35z"/>
			<path class="st0" d="M249.94,65.73c0,0-11.83-22.31,0-22.31"/>
			<path class="st0" d="M245,66.37c0,0-16.62-5.42-10.73-11.11S245,66.37,245,66.37z"/>
			<path class="st0" d="M233.64,128.63c0,0-9.28-24.71-32.62-29c0,0,10.47,1.03,11.84,12.7
				C214.23,123.99,219.58,135.83,233.64,128.63z"/>
			<path class="st0" d="M219.47,91.81c-3.96-7.56-14.73-6.43-22.35-5.66c-8.51,0.86-17.77-6.59-17.77-6.59"/>
			<path class="st0" d="M206.67,111.49c0,0,7.03,13.76-1.2,25.96"/>
			<path class="st1" d="M191.97,97.49c0,2.84-2.3,5.14-5.14,5.14c-2.84,0-5.14-2.3-5.14-5.14c0-2.84,2.3-5.14,5.14-5.14
				C189.66,92.35,191.97,94.65,191.97,97.49z"/>
			<path class="st0" d="M195.52,112.19c0,0,10.55,0.64,7.12,18.1"/>
		</g>
		<path class="st0" d="M202.59,81.52c-0.09-0.34-1.81-9.87,4.88-20.25c0,0,11.12,0.34,19.77,7.72"/>
		<path class="st0" d="M212.37,83.06c0-0.6-3.95-7.47-2.83-17.93c0,0,8.41,5.46,13.39,11.48"/>
	</g>
	<g>
		<g>
			<path class="st0" d="M249.98,130.83"/>
			<path class="st0" d="M249.98,130.83"/>
			<path class="st0" d="M249.98,138.83"/>
			<path class="st0" d="M249.98,153.83"/>
			<path class="st0" d="M249.98,69.96"/>
			<path class="st0" d="M250.01,81.52"/>
			<path class="st0" d="M249.98,124.76"/>
			<path class="st0" d="M249.98,75.34"/>
			<path class="st0" d="M249.94,43.42"/>
			<path class="st0" d="M249.94,65.73"/>
		</g>
	</g>
</g>
<g>
	<g>
		<g>
			<path class="st0" d="M285.45,161.31c0,0,3.2-15.29-13.2-18.85c-16.4-3.56-22.27-11.64-22.27-11.64"/>
			<path class="st0" d="M249.97,130.83"/>
			<path class="st0" d="M249.97,153.83c0,0,8.73-15,0-15"/>
			<path class="st0" d="M256.24,153.83c0,0,1.26-10.88,5.49-9.16C265.96,146.38,256.24,153.83,256.24,153.83z"/>
			<path class="st0" d="M258.07,132.43c0,0,32.78-62.47-8.09-62.47"/>
			<path class="st0" d="M249.97,124.76c0,0,17.42-43.25,0.03-43.25"/>
			<path class="st0" d="M253.85,128.88c0,0,25.33-53.54-3.88-53.54"/>
			<path class="st1" d="M261.34,134.03c0,1.05,0.85,1.9,1.9,1.9c1.05,0,1.9-0.85,1.9-1.9s-0.85-1.9-1.9-1.9
				C262.19,132.13,261.34,132.98,261.34,134.03z"/>
			<g>
				<path class="st1" d="M263.24,68.27c0,1.05,0.85,1.9,1.9,1.9c1.05,0,1.9-0.85,1.9-1.9c0-1.05-0.85-1.9-1.9-1.9
					C264.09,66.37,263.24,67.22,263.24,68.27z"/>
				<path class="st1" d="M267.59,71.86c0,1.05,0.85,1.9,1.9,1.9c1.05,0,1.9-0.85,1.9-1.9c0-1.05-0.85-1.9-1.9-1.9
					C268.44,69.96,267.59,70.81,267.59,71.86z"/>
				<path class="st1" d="M270.73,76.61c0,1.05,0.85,1.9,1.9,1.9c1.05,0,1.9-0.85,1.9-1.9c0-1.05-0.85-1.9-1.9-1.9
					C271.59,74.71,270.73,75.56,270.73,76.61z"/>
				<path class="st1" d="M272.64,82.1c0,1.05,0.85,1.9,1.9,1.9c1.05,0,1.9-0.85,1.9-1.9c0-1.05-0.85-1.9-1.9-1.9
					C273.49,80.2,272.64,81.05,272.64,82.1z"/>
				<path class="st1" d="M273.44,88.05c0,1.05,0.85,1.9,1.9,1.9c1.05,0,1.9-0.85,1.9-1.9s-0.85-1.9-1.9-1.9
					C274.29,86.15,273.44,87,273.44,88.05z"/>
				<path class="st1" d="M273.44,93.71c0,1.05,0.85,1.9,1.9,1.9c1.05,0,1.9-0.85,1.9-1.9c0-1.05-0.85-1.9-1.9-1.9
					C274.29,91.81,273.44,92.66,273.44,93.71z"/>
				<path class="st1" d="M272.64,99.38c0,1.05,0.85,1.9,1.9,1.9c1.05,0,1.9-0.85,1.9-1.9c0-1.05-0.85-1.9-1.9-1.9
					C273.49,97.48,272.64,98.33,272.64,99.38z"/>
				<path class="st1" d="M271.21,105.04c0,1.05,0.85,1.9,1.9,1.9s1.9-0.85,1.9-1.9c0-1.05-0.85-1.9-1.9-1.9
					S271.21,103.99,271.21,105.04z"/>
				<path class="st1" d="M270.17,110.02c0,0.81,0.66,1.47,1.47,1.47c0.81,0,1.47-0.66,1.47-1.47c0-0.81-0.66-1.47-1.47-1.47
					C270.82,108.55,270.17,109.2,270.17,110.02z"/>
				<path class="st1" d="M268.69,114.14c0,0.68,0.55,1.23,1.23,1.23c0.68,0,1.23-0.55,1.23-1.23c0-0.68-0.55-1.23-1.23-1.23
					C269.24,112.91,268.69,113.46,268.69,114.14z"/>
				<path class="st1" d="M267.19,117.51c0,0.52,0.42,0.95,0.95,0.95c0.52,0,0.95-0.42,0.95-0.95s-0.42-0.95-0.95-0.95
					C267.61,116.56,267.19,116.99,267.19,117.51z"/>
				<path class="st1" d="M266.23,120.35c0,0.38,0.31,0.69,0.69,0.69c0.38,0,0.69-0.31,0.69-0.69c0-0.38-0.31-0.69-0.69-0.69
					C266.54,119.66,266.23,119.97,266.23,120.35z"/>
			</g>
			<path class="st1" d="M266.23,136.17c0,1.05,0.85,1.9,1.9,1.9c1.05,0,1.9-0.85,1.9-1.9s-0.85-1.9-1.9-1.9
				C267.08,134.27,266.23,135.12,266.23,136.17z"/>
			<path class="st1" d="M267.45,52.67c0,1.05,0.85,1.9,1.9,1.9c1.05,0,1.9-0.85,1.9-1.9s-0.85-1.9-1.9-1.9
				C268.3,50.77,267.45,51.62,267.45,52.67z"/>
			<path class="st1" d="M271.38,137.83c0,1.05,0.85,1.9,1.9,1.9c1.05,0,1.9-0.85,1.9-1.9c0-1.05-0.85-1.9-1.9-1.9
				C272.23,135.93,271.38,136.78,271.38,137.83z"/>
			<path class="st1" d="M314.5,89.48c0,1.05,0.85,1.9,1.9,1.9c1.05,0,1.9-0.85,1.9-1.9c0-1.05-0.85-1.9-1.9-1.9
				C315.35,87.58,314.5,88.43,314.5,89.48z"/>
			<path class="st1" d="M308.11,104.95c0,1.05,0.85,1.9,1.9,1.9c1.05,0,1.9-0.85,1.9-1.9c0-1.05-0.85-1.9-1.9-1.9
				C308.96,103.05,308.11,103.9,308.11,104.95z"/>
			<path class="st1" d="M306.52,109.51c0,0.88,0.71,1.59,1.59,1.59c0.88,0,1.59-0.71,1.59-1.59c0-0.88-0.71-1.59-1.59-1.59
				C307.23,107.92,306.52,108.63,306.52,109.51z"/>
			<path class="st1" d="M276.6,139.35c0,1.05,0.85,1.9,1.9,1.9c1.05,0,1.9-0.85,1.9-1.9c0-1.05-0.85-1.9-1.9-1.9
				C277.45,137.45,276.6,138.3,276.6,139.35z"/>
			<path class="st0" d="M249.93,65.73c0,0,11.83-22.31,0-22.31"/>
			<path class="st0" d="M254.87,66.37c0,0,16.62-5.42,10.73-11.11S254.87,66.37,254.87,66.37z"/>
			<path class="st0" d="M266.23,128.63c0,0,9.28-24.71,32.62-29c0,0-10.47,1.03-11.84,12.7
				C285.64,123.99,280.29,135.83,266.23,128.63z"/>
			<path class="st0" d="M280.4,91.81c3.96-7.56,14.73-6.43,22.35-5.66c8.51,0.86,17.77-6.59,17.77-6.59"/>
			<path class="st0" d="M293.2,111.49c0,0-7.03,13.76,1.2,25.96"/>
			<path class="st1" d="M307.9,97.49c0,2.84,2.3,5.14,5.14,5.14c2.84,0,5.14-2.3,5.14-5.14c0-2.84-2.3-5.14-5.14-5.14
				C310.21,92.35,307.9,94.65,307.9,97.49z"/>
			<path class="st0" d="M304.35,112.19c0,0-10.55,0.64-7.12,18.1"/>
		</g>
		<path class="st0" d="M297.28,81.52c0.09-0.34,1.81-9.87-4.88-20.25c0,0-11.12,0.34-19.77,7.72"/>
		<path class="st0" d="M287.5,83.06c0-0.6,3.95-7.47,2.83-17.93c0,0-8.41,5.46-13.39,11.48"/>
	</g>
	<g>
		<g>
			<path class="st0" d="M249.89,130.83"/>
			<path class="st0" d="M249.89,130.83"/>
			<path class="st0" d="M249.89,138.83"/>
			<path class="st0" d="M249.89,153.83"/>
			<path class="st0" d="M249.89,69.96"/>
			<path class="st0" d="M249.86,81.52"/>
			<path class="st0" d="M249.89,124.76"/>
			<path class="st0" d="M249.89,75.34"/>
			<path class="st1" d="M251.83,38.96c0-1.05-0.85-1.9-1.9-1.9v0c0,0,0,0,0,0c0,0,0,0,0,0v0c-1.05,0-1.9,0.85-1.9,1.9
				c0,1.05,0.85,1.9,1.9,1.9v0c0,0,0,0,0,0c0,0,0,0,0,0v0C250.99,40.85,251.83,40,251.83,38.96z"/>
			<path class="st0" d="M249.93,43.42"/>
			<path class="st0" d="M249.93,65.73"/>
		</g>
	</g>
</g>
<g>
	<g>
		<g>
			<path class="st0" d="M287.55,162.13c0,0,8.54-13.07,22.66-3.99c14.12,9.08,23.98,7.52,23.98,7.52"/>
			<path class="st0" d="M334.2,165.66"/>
			<path class="st0" d="M317.93,181.92c0,0,4.43-16.77,10.6-10.6"/>
			<path class="st0" d="M313.5,177.5c0,0,6.8-8.58,2.59-10.36S313.5,177.5,313.5,177.5z"/>
			<path class="st0" d="M327.34,161.07c0,0,20.99-67.35,49.89-38.45"/>
			<path class="st0" d="M338.48,161.37c0,0,18.26-42.9,30.56-30.6"/>
			<path class="st0" d="M332.83,161.54c0,0,19.95-55.77,40.6-35.12"/>
			<circle class="st1" cx="322.55" cy="158.54" r="1.9"/>
			<g>
				<circle class="st1" cx="367.7" cy="110.7" r="1.9"/>
				<circle class="st1" cx="362.09" cy="110.16" r="1.9"/>
				<circle class="st1" cx="356.51" cy="111.3" r="1.9"/>
				<circle class="st1" cx="351.28" cy="113.83" r="1.9"/>
				<circle class="st1" cx="346.51" cy="117.48" r="1.9"/>
				<circle class="st1" cx="342.5" cy="121.48" r="1.9"/>
				<circle class="st1" cx="339.06" cy="126.05" r="1.9"/>
				<circle class="st1" cx="336.07" cy="131.07" r="1.9"/>
				<path class="st1" d="M334.63,136.67c-0.57,0.57-1.51,0.57-2.08,0c-0.57-0.57-0.57-1.51,0-2.08c0.57-0.57,1.51-0.57,2.08,0
					C335.21,135.16,335.21,136.09,334.63,136.67z"/>
				<circle class="st1" cx="331.89" cy="139.75" r="1.23"/>
				<circle class="st1" cx="330.77" cy="143.4" r="0.95"/>
				<path class="st1" d="M330.11,146.75c-0.27,0.27-0.71,0.27-0.98,0c-0.27-0.27-0.27-0.71,0-0.98c0.27-0.27,0.71-0.27,0.98,0
					C330.38,146.05,330.38,146.48,330.11,146.75z"/>
			</g>
			<circle class="st1" cx="317.57" cy="156.6" r="1.9"/>
			<circle class="st1" cx="375.76" cy="96.7" r="1.9"/>
			<circle class="st1" cx="312.76" cy="154.13" r="1.9"/>
			<circle class="st1" cx="316.46" cy="89.45" r="1.9"/>
			<circle class="st1" cx="310.04" cy="104.9" r="1.9"/>
			<path class="st1" d="M309.28,110.6c-0.62,0.62-1.63,0.62-2.25,0c-0.62-0.62-0.62-1.63,0-2.25c0.62-0.62,1.63-0.62,2.25,0
				C309.9,108.97,309.9,109.98,309.28,110.6z"/>
			<circle class="st1" cx="308" cy="151.51" r="1.9"/>
			<path class="st0" d="M380.26,119.65c0,0,7.41-24.14,15.78-15.78"/>
			<path class="st0" d="M376.31,116.62c0,0-7.92-15.58,0.27-15.44C384.77,101.32,376.31,116.62,376.31,116.62z"/>
			<path class="st0" d="M324.26,152.61c0,0,10.91-24.04-2.56-43.57c0,0,6.67,8.13-0.61,17.35
				C313.81,135.61,309.22,147.76,324.26,152.61z"/>
			<path class="st0" d="M340.27,116.56c2.55-8.15-5.87-14.97-11.8-19.81c-6.62-5.41-7.9-17.23-7.9-17.23"/>
			<path class="st0" d="M317.31,121.42c0,0-4.76,14.7-19.21,17.5"/>
			<circle class="st1" cx="313.17" cy="97.48" r="5.14"/>
			<path class="st0" d="M308.93,114.03c0,0,7.01,7.91-7.76,17.84"/>
		</g>
		<path class="st0" d="M335.61,97.34c0.18-0.3,5.69-8.26,17.77-10.87c0,0,7.62,8.1,8.52,19.44"/>
		<path class="st0" d="M341.44,105.35c0.42-0.42,2.49-8.07,10.68-14.68c0,0,2.08,9.81,1.35,17.58"/>
	</g>
	<g>
		<g>
			<path class="st0" d="M334.25,165.72"/>
			<path class="st0" d="M334.25,165.72"/>
			<path class="st0" d="M328.59,171.38"/>
			<path class="st0" d="M317.99,181.98"/>
			<path class="st0" d="M377.29,122.68"/>
			<path class="st0" d="M369.14,130.87"/>
			<path class="st0" d="M338.54,161.43"/>
			<path class="st0" d="M373.49,126.48"/>
			<path class="st0" d="M396.03,103.88"/>
			<path class="st0" d="M380.26,119.65"/>
		</g>
	</g>
</g>
<g>
	<g>
		<g>
			<path class="st0" d="M337.78,212.36c0,0,13.07-8.54,3.99-22.66c-9.08-14.12-7.52-23.98-7.52-23.98"/>
			<path class="st0" d="M334.25,165.71"/>
			<path class="st0" d="M317.98,181.98c0,0,16.77-4.43,10.6-10.6"/>
			<path class="st0" d="M322.41,186.41c0,0,8.58-6.8,10.36-2.59C334.55,188.02,322.41,186.41,322.41,186.41z"/>
			<path class="st0" d="M338.84,172.57c0,0,67.35-20.99,38.45-49.89"/>
			<path class="st0" d="M338.54,161.43c0,0,42.9-18.26,30.6-30.56"/>
			<path class="st0" d="M338.37,167.08c0,0,55.77-19.95,35.12-40.6"/>
			<circle class="st1" cx="341.37" cy="177.36" r="1.9"/>
			<g>
				<circle class="st1" cx="389.21" cy="132.21" r="1.9"/>
				<circle class="st1" cx="389.74" cy="137.82" r="1.9"/>
				<circle class="st1" cx="388.61" cy="143.4" r="1.9"/>
				<circle class="st1" cx="386.07" cy="148.63" r="1.9"/>
				<circle class="st1" cx="382.43" cy="153.4" r="1.9"/>
				<circle class="st1" cx="378.43" cy="157.41" r="1.9"/>
				<circle class="st1" cx="373.86" cy="160.84" r="1.9"/>
				<circle class="st1" cx="368.84" cy="163.84" r="1.9"/>
				<circle class="st1" cx="364.28" cy="166.32" r="1.47"/>
				<path class="st1" d="M359.29,167.15c-0.48,0.48-0.48,1.26,0,1.74c0.48,0.48,1.26,0.48,1.74,0c0.48-0.48,0.48-1.26,0-1.74
					C360.55,166.67,359.77,166.67,359.29,167.15z"/>
				<circle class="st1" cx="356.51" cy="169.14" r="0.95"/>
				<circle class="st1" cx="353.64" cy="170.29" r="0.69"/>
			</g>
			<circle class="st1" cx="343.31" cy="182.33" r="1.9"/>
			<circle class="st1" cx="403.21" cy="124.15" r="1.9"/>
			<circle class="st1" cx="345.78" cy="187.15" r="1.9"/>
			<circle class="st1" cx="410.46" cy="183.45" r="1.9"/>
			<circle class="st1" cx="395" cy="189.87" r="1.9"/>
			<path class="st1" d="M389.31,190.62c-0.62,0.62-0.62,1.63,0,2.25c0.62,0.62,1.63,0.62,2.25,0c0.62-0.62,0.62-1.63,0-2.25
				C390.94,190,389.93,190,389.31,190.62z"/>
			<circle class="st1" cx="348.4" cy="191.91" r="1.9"/>
			<path class="st0" d="M380.25,119.65c0,0,24.14-7.41,15.78-15.78"/>
			<path class="st0" d="M383.29,123.6c0,0,15.58,7.92,15.44-0.27C398.59,115.14,383.29,123.6,383.29,123.6z"/>
			<path class="st0" d="M347.3,175.65c0,0,24.04-10.91,43.57,2.56c0,0-8.13-6.67-17.35,0.61C364.3,186.1,352.15,190.69,347.3,175.65
				z"/>
			<path class="st0" d="M383.35,159.64c8.15-2.55,14.97,5.87,19.81,11.8c5.41,6.62,17.23,7.9,17.23,7.9"/>
			<path class="st0" d="M378.49,182.6c0,0-14.7,4.76-17.5,19.21"/>
			<circle class="st1" cx="402.42" cy="186.74" r="5.14"/>
			<path class="st0" d="M385.88,190.98c0,0-7.91-7.01-17.84,7.76"/>
		</g>
		<path class="st0" d="M402.57,164.3c0.3-0.18,8.26-5.69,10.87-17.77c0,0-8.1-7.62-19.44-8.52"/>
		<path class="st0" d="M394.56,158.47c0.42-0.42,8.07-2.49,14.68-10.68c0,0-9.81-2.08-17.58-1.35"/>
	</g>
	<g>
		<g>
			<path class="st0" d="M334.19,165.65"/>
			<path class="st0" d="M334.19,165.65"/>
			<path class="st0" d="M328.53,171.32"/>
			<path class="st0" d="M317.93,181.92"/>
			<path class="st0" d="M377.23,122.62"/>
			<path class="st0" d="M369.04,130.77"/>
			<path class="st0" d="M338.48,161.37"/>
			<path class="st0" d="M373.43,126.42"/>
			<path class="st1" d="M400.53,102.07c0.74-0.74,0.74-1.94,0-2.69l0,0c0,0,0,0,0,0c0,0,0,0,0,0l0,0c-0.74-0.74-1.94-0.74-2.69,0
				c-0.74,0.74-0.74,1.94,0,2.69l0,0c0,0,0,0,0,0c0,0,0,0,0,0l0,0C398.58,102.81,399.79,102.81,400.53,102.07z"/>
			<path class="st0" d="M396.03,103.88"/>
			<path class="st0" d="M380.25,119.65"/>
		</g>
	</g>
</g>
<g>
	<g>
		<g>
			<path class="st0" d="M338.69,214.42c0,0,15.29-3.2,18.85,13.2c3.56,16.4,11.64,22.27,11.64,22.27"/>
			<path class="st0" d="M369.17,249.9"/>
			<path class="st0" d="M346.17,249.9c0,0,15-8.73,15,0"/>
			<path class="st0" d="M346.17,243.63c0,0,10.88-1.26,9.16-5.49C353.62,233.91,346.17,243.63,346.17,243.63z"/>
			<path class="st0" d="M367.57,241.8c0,0,62.47-32.78,62.47,8.09"/>
			<path class="st0" d="M375.24,249.9c0,0,43.25-17.42,43.25-0.03"/>
			<path class="st0" d="M371.12,246.02c0,0,53.54-25.33,53.54,3.88"/>
			<path class="st1" d="M365.97,238.53c-1.05,0-1.9-0.85-1.9-1.9c0-1.05,0.85-1.9,1.9-1.9c1.05,0,1.9,0.85,1.9,1.9
				C367.87,237.68,367.02,238.53,365.97,238.53z"/>
			<g>
				<path class="st1" d="M431.73,236.63c-1.05,0-1.9-0.85-1.9-1.9c0-1.05,0.85-1.9,1.9-1.9c1.05,0,1.9,0.85,1.9,1.9
					C433.63,235.78,432.78,236.63,431.73,236.63z"/>
				<path class="st1" d="M428.14,232.28c-1.05,0-1.9-0.85-1.9-1.9c0-1.05,0.85-1.9,1.9-1.9c1.05,0,1.9,0.85,1.9,1.9
					C430.04,231.43,429.19,232.28,428.14,232.28z"/>
				<path class="st1" d="M423.39,229.13c-1.05,0-1.9-0.85-1.9-1.9s0.85-1.9,1.9-1.9c1.05,0,1.9,0.85,1.9,1.9
					S424.44,229.13,423.39,229.13z"/>
				<path class="st1" d="M417.9,227.23c-1.05,0-1.9-0.85-1.9-1.9s0.85-1.9,1.9-1.9c1.05,0,1.9,0.85,1.9,1.9
					S418.95,227.23,417.9,227.23z"/>
				<path class="st1" d="M411.95,226.43c-1.05,0-1.9-0.85-1.9-1.9s0.85-1.9,1.9-1.9c1.05,0,1.9,0.85,1.9,1.9
					S413,226.43,411.95,226.43z"/>
				<path class="st1" d="M406.29,226.43c-1.05,0-1.9-0.85-1.9-1.9s0.85-1.9,1.9-1.9c1.05,0,1.9,0.85,1.9,1.9
					S407.34,226.43,406.29,226.43z"/>
				<path class="st1" d="M400.62,227.23c-1.05,0-1.9-0.85-1.9-1.9s0.85-1.9,1.9-1.9s1.9,0.85,1.9,1.9S401.67,227.23,400.62,227.23z"
					/>
				<path class="st1" d="M394.96,228.66c-1.05,0-1.9-0.85-1.9-1.9c0-1.05,0.85-1.9,1.9-1.9c1.05,0,1.9,0.85,1.9,1.9
					C396.86,227.81,396.01,228.66,394.96,228.66z"/>
				<path class="st1" d="M389.98,229.7c-0.81,0-1.47-0.66-1.47-1.47c0-0.81,0.66-1.47,1.47-1.47c0.81,0,1.47,0.66,1.47,1.47
					C391.45,229.05,390.8,229.7,389.98,229.7z"/>
				<path class="st1" d="M385.86,231.18c-0.68,0-1.23-0.55-1.23-1.23c0-0.68,0.55-1.23,1.23-1.23c0.68,0,1.23,0.55,1.23,1.23
					C387.09,230.63,386.54,231.18,385.86,231.18z"/>
				<path class="st1" d="M382.49,232.68c-0.52,0-0.95-0.42-0.95-0.95c0-0.52,0.42-0.95,0.95-0.95s0.95,0.42,0.95,0.95
					C383.44,232.26,383.01,232.68,382.49,232.68z"/>
				<path class="st1" d="M379.65,233.64c-0.38,0-0.69-0.31-0.69-0.69c0-0.38,0.31-0.69,0.69-0.69c0.38,0,0.69,0.31,0.69,0.69
					C380.34,233.33,380.03,233.64,379.65,233.64z"/>
			</g>
			<path class="st1" d="M363.83,233.64c-1.05,0-1.9-0.85-1.9-1.9s0.85-1.9,1.9-1.9c1.05,0,1.9,0.85,1.9,1.9
				S364.88,233.64,363.83,233.64z"/>
			<path class="st1" d="M447.33,232.42c-1.05,0-1.9-0.85-1.9-1.9s0.85-1.9,1.9-1.9c1.05,0,1.9,0.85,1.9,1.9
				S448.38,232.42,447.33,232.42z"/>
			<path class="st1" d="M362.17,228.49c-1.05,0-1.9-0.85-1.9-1.9s0.85-1.9,1.9-1.9c1.05,0,1.9,0.85,1.9,1.9
				S363.22,228.49,362.17,228.49z"/>
			<path class="st1" d="M410.52,185.37c-1.05,0-1.9-0.85-1.9-1.9s0.85-1.9,1.9-1.9c1.05,0,1.9,0.85,1.9,1.9
				S411.57,185.37,410.52,185.37z"/>
			<path class="st1" d="M395.05,191.76c-1.05,0-1.9-0.85-1.9-1.9s0.85-1.9,1.9-1.9c1.05,0,1.9,0.85,1.9,1.9
				S396.1,191.76,395.05,191.76z"/>
			<path class="st1" d="M390.49,193.35c-0.88,0-1.59-0.71-1.59-1.59c0-0.88,0.71-1.59,1.59-1.59c0.88,0,1.59,0.71,1.59,1.59
				C392.08,192.64,391.37,193.35,390.49,193.35z"/>
			<path class="st1" d="M360.65,223.27c-1.05,0-1.9-0.85-1.9-1.9c0-1.05,0.85-1.9,1.9-1.9c1.05,0,1.9,0.85,1.9,1.9
				C362.55,222.42,361.7,223.27,360.65,223.27z"/>
			<path class="st0" d="M434.27,249.94c0,0,22.31-11.83,22.31,0"/>
			<path class="st0" d="M433.63,245c0,0,5.42-16.62,11.11-10.73C450.43,240.16,433.63,245,433.63,245z"/>
			<path class="st0" d="M371.37,233.64c0,0,24.71-9.28,29-32.62c0,0-1.03,10.47-12.7,11.84
				C376.01,214.23,364.17,219.58,371.37,233.64z"/>
			<path class="st0" d="M408.19,219.47c7.56-3.96,6.43-14.73,5.66-22.35c-0.86-8.51,6.59-17.77,6.59-17.77"/>
			<path class="st0" d="M388.51,206.67c0,0-13.76,7.03-25.96-1.2"/>
			<path class="st1" d="M402.51,191.97c-2.84,0-5.14-2.3-5.14-5.14c0-2.84,2.3-5.14,5.14-5.14c2.84,0,5.14,2.3,5.14,5.14
				C407.65,189.66,405.35,191.97,402.51,191.97z"/>
			<path class="st0" d="M387.81,195.52c0,0-0.64,10.55-18.1,7.12"/>
		</g>
		<path class="st0" d="M418.48,202.59c0.34-0.09,9.87-1.81,20.25,4.88c0,0-0.34,11.12-7.72,19.77"/>
		<path class="st0" d="M416.94,212.37c0.6,0,7.47-3.95,17.93-2.83c0,0-5.46,8.41-11.48,13.39"/>
	</g>
	<g>
		<g>
			<path class="st0" d="M369.17,249.98"/>
			<path class="st0" d="M369.17,249.98"/>
			<path class="st0" d="M361.17,249.98"/>
			<path class="st0" d="M346.17,249.98"/>
			<path class="st0" d="M430.04,249.98"/>
			<path class="st0" d="M418.48,250.01"/>
			<path class="st0" d="M375.24,249.98"/>
			<path class="st0" d="M424.66,249.98"/>
			<path class="st0" d="M456.58,249.94"/>
			<path class="st0" d="M434.27,249.94"/>
		</g>
	</g>
</g>
<g>
	<g>
		<g>
			<path class="st0" d="M338.69,285.45c0,0,15.29,3.2,18.85-13.2c3.56-16.4,11.64-22.27,11.64-22.27"/>
			<path class="st0" d="M369.17,249.97"/>
			<path class="st0" d="M346.17,249.97c0,0,15,8.73,15,0"/>
			<path class="st0" d="M346.17,256.24c0,0,10.88,1.26,9.16,5.49C353.62,265.96,346.17,256.24,346.17,256.24z"/>
			<path class="st0" d="M367.57,258.07c0,0,62.47,32.78,62.47-8.09"/>
			<path class="st0" d="M375.24,249.97c0,0,43.25,17.42,43.25,0.03"/>
			<path class="st0" d="M371.12,253.85c0,0,53.54,25.33,53.54-3.88"/>
			<path class="st1" d="M365.97,261.34c-1.05,0-1.9,0.85-1.9,1.9c0,1.05,0.85,1.9,1.9,1.9c1.05,0,1.9-0.85,1.9-1.9
				C367.87,262.19,367.02,261.34,365.97,261.34z"/>
			<g>
				<path class="st1" d="M431.73,263.24c-1.05,0-1.9,0.85-1.9,1.9c0,1.05,0.85,1.9,1.9,1.9c1.05,0,1.9-0.85,1.9-1.9
					C433.63,264.09,432.78,263.24,431.73,263.24z"/>
				<path class="st1" d="M428.14,267.59c-1.05,0-1.9,0.85-1.9,1.9c0,1.05,0.85,1.9,1.9,1.9c1.05,0,1.9-0.85,1.9-1.9
					C430.04,268.44,429.19,267.59,428.14,267.59z"/>
				<path class="st1" d="M423.39,270.73c-1.05,0-1.9,0.85-1.9,1.9s0.85,1.9,1.9,1.9c1.05,0,1.9-0.85,1.9-1.9
					S424.44,270.73,423.39,270.73z"/>
				<path class="st1" d="M417.9,272.64c-1.05,0-1.9,0.85-1.9,1.9c0,1.05,0.85,1.9,1.9,1.9c1.05,0,1.9-0.85,1.9-1.9
					C419.8,273.49,418.95,272.64,417.9,272.64z"/>
				<path class="st1" d="M411.95,273.44c-1.05,0-1.9,0.85-1.9,1.9c0,1.05,0.85,1.9,1.9,1.9c1.05,0,1.9-0.85,1.9-1.9
					C413.85,274.29,413,273.44,411.95,273.44z"/>
				<path class="st1" d="M406.29,273.44c-1.05,0-1.9,0.85-1.9,1.9c0,1.05,0.85,1.9,1.9,1.9c1.05,0,1.9-0.85,1.9-1.9
					C408.19,274.29,407.34,273.44,406.29,273.44z"/>
				<path class="st1" d="M400.62,272.64c-1.05,0-1.9,0.85-1.9,1.9c0,1.05,0.85,1.9,1.9,1.9s1.9-0.85,1.9-1.9
					C402.52,273.49,401.67,272.64,400.62,272.64z"/>
				<path class="st1" d="M394.96,271.21c-1.05,0-1.9,0.85-1.9,1.9c0,1.05,0.85,1.9,1.9,1.9c1.05,0,1.9-0.85,1.9-1.9
					C396.86,272.06,396.01,271.21,394.96,271.21z"/>
				<path class="st1" d="M389.98,270.17c-0.81,0-1.47,0.66-1.47,1.47c0,0.81,0.66,1.47,1.47,1.47c0.81,0,1.47-0.66,1.47-1.47
					C391.45,270.82,390.8,270.17,389.98,270.17z"/>
				<path class="st1" d="M385.86,268.69c-0.68,0-1.23,0.55-1.23,1.23c0,0.68,0.55,1.23,1.23,1.23c0.68,0,1.23-0.55,1.23-1.23
					C387.09,269.24,386.54,268.69,385.86,268.69z"/>
				<path class="st1" d="M382.49,267.19c-0.52,0-0.95,0.42-0.95,0.95c0,0.52,0.42,0.95,0.95,0.95s0.95-0.42,0.95-0.95
					C383.44,267.61,383.01,267.19,382.49,267.19z"/>
				<path class="st1" d="M379.65,266.23c-0.38,0-0.69,0.31-0.69,0.69c0,0.38,0.31,0.69,0.69,0.69c0.38,0,0.69-0.31,0.69-0.69
					C380.34,266.54,380.03,266.23,379.65,266.23z"/>
			</g>
			<path class="st1" d="M363.83,266.23c-1.05,0-1.9,0.85-1.9,1.9c0,1.05,0.85,1.9,1.9,1.9c1.05,0,1.9-0.85,1.9-1.9
				C365.73,267.08,364.88,266.23,363.83,266.23z"/>
			<path class="st1" d="M447.33,267.45c-1.05,0-1.9,0.85-1.9,1.9c0,1.05,0.85,1.9,1.9,1.9c1.05,0,1.9-0.85,1.9-1.9
				C449.23,268.3,448.38,267.45,447.33,267.45z"/>
			<path class="st1" d="M362.17,271.38c-1.05,0-1.9,0.85-1.9,1.9c0,1.05,0.85,1.9,1.9,1.9c1.05,0,1.9-0.85,1.9-1.9
				C364.07,272.23,363.22,271.38,362.17,271.38z"/>
			<path class="st1" d="M410.52,314.5c-1.05,0-1.9,0.85-1.9,1.9c0,1.05,0.85,1.9,1.9,1.9c1.05,0,1.9-0.85,1.9-1.9
				C412.42,315.35,411.57,314.5,410.52,314.5z"/>
			<path class="st1" d="M395.05,308.11c-1.05,0-1.9,0.85-1.9,1.9c0,1.05,0.85,1.9,1.9,1.9c1.05,0,1.9-0.85,1.9-1.9
				C396.95,308.96,396.1,308.11,395.05,308.11z"/>
			<path class="st1" d="M390.49,306.52c-0.88,0-1.59,0.71-1.59,1.59c0,0.88,0.71,1.59,1.59,1.59c0.88,0,1.59-0.71,1.59-1.59
				C392.08,307.23,391.37,306.52,390.49,306.52z"/>
			<path class="st1" d="M360.65,276.6c-1.05,0-1.9,0.85-1.9,1.9c0,1.05,0.85,1.9,1.9,1.9c1.05,0,1.9-0.85,1.9-1.9
				C362.55,277.45,361.7,276.6,360.65,276.6z"/>
			<path class="st0" d="M434.27,249.93c0,0,22.31,11.83,22.31,0"/>
			<path class="st0" d="M433.63,254.87c0,0,5.42,16.62,11.11,10.73C450.43,259.71,433.63,254.87,433.63,254.87z"/>
			<path class="st0" d="M371.37,266.23c0,0,24.71,9.28,29,32.62c0,0-1.03-10.47-12.7-11.84
				C376.01,285.64,364.17,280.29,371.37,266.23z"/>
			<path class="st0" d="M408.19,280.4c7.56,3.96,6.43,14.73,5.66,22.35c-0.86,8.51,6.59,17.77,6.59,17.77"/>
			<path class="st0" d="M388.51,293.2c0,0-13.76-7.03-25.96,1.2"/>
			<path class="st1" d="M402.51,307.9c-2.84,0-5.14,2.3-5.14,5.14c0,2.84,2.3,5.14,5.14,5.14c2.84,0,5.14-2.3,5.14-5.14
				C407.65,310.21,405.35,307.9,402.51,307.9z"/>
			<path class="st0" d="M387.81,304.35c0,0-0.64-10.55-18.1-7.12"/>
		</g>
		<path class="st0" d="M418.48,297.28c0.34,0.09,9.87,1.81,20.25-4.88c0,0-0.34-11.12-7.72-19.77"/>
		<path class="st0" d="M416.94,287.5c0.6,0,7.47,3.95,17.93,2.83c0,0-5.46-8.41-11.48-13.39"/>
	</g>
	<g>
		<g>
			<path class="st0" d="M369.17,249.89"/>
			<path class="st0" d="M369.17,249.89"/>
			<path class="st0" d="M361.17,249.89"/>
			<path class="st0" d="M346.17,249.89"/>
			<path class="st0" d="M430.04,249.89"/>
			<path class="st0" d="M418.48,249.86"/>
			<path class="st0" d="M375.24,249.89"/>
			<path class="st0" d="M424.66,249.89"/>
			<path class="st1" d="M461.04,251.83c1.05,0,1.9-0.85,1.9-1.9h0c0,0,0,0,0,0c0,0,0,0,0,0h0c0-1.05-0.85-1.9-1.9-1.9
				c-1.05,0-1.9,0.85-1.9,1.9h0c0,0,0,0,0,0c0,0,0,0,0,0h0C459.15,250.99,460,251.83,461.04,251.83z"/>
			<path class="st0" d="M456.58,249.93"/>
			<path class="st0" d="M434.27,249.93"/>
		</g>
	</g>
</g>
<g>
	<g>
		<g>
			<path class="st0" d="M337.87,287.55c0,0,13.07,8.55,3.99,22.66s-7.52,23.98-7.52,23.98"/>
			<path class="st0" d="M334.34,334.2"/>
			<path class="st0" d="M318.08,317.93c0,0,16.77,4.43,10.6,10.6"/>
			<path class="st0" d="M322.5,313.5c0,0,8.58,6.8,10.36,2.59S322.5,313.5,322.5,313.5z"/>
			<path class="st0" d="M338.93,327.34c0,0,67.35,20.99,38.45,49.89"/>
			<path class="st0" d="M338.63,338.48c0,0,42.9,18.26,30.6,30.56"/>
			<path class="st0" d="M338.46,332.83c0,0,55.77,19.95,35.12,40.6"/>
			<circle class="st1" cx="341.46" cy="322.55" r="1.9"/>
			<g>
				<circle class="st1" cx="389.3" cy="367.7" r="1.9"/>
				<circle class="st1" cx="389.84" cy="362.09" r="1.9"/>
				<circle class="st1" cx="388.7" cy="356.51" r="1.9"/>
				<circle class="st1" cx="386.16" cy="351.28" r="1.9"/>
				<circle class="st1" cx="382.52" cy="346.51" r="1.9"/>
				<circle class="st1" cx="378.52" cy="342.5" r="1.9"/>
				<circle class="st1" cx="373.95" cy="339.06" r="1.9"/>
				<circle class="st1" cx="368.93" cy="336.07" r="1.9"/>
				<path class="st1" d="M363.33,334.63c-0.57-0.57-0.57-1.51,0-2.08c0.57-0.57,1.51-0.57,2.08,0c0.57,0.57,0.57,1.51,0,2.08
					C364.84,335.21,363.91,335.21,363.33,334.63z"/>
				<circle class="st1" cx="360.25" cy="331.89" r="1.23"/>
				<circle class="st1" cx="356.6" cy="330.77" r="0.95"/>
				<path class="st1" d="M353.25,330.11c-0.27-0.27-0.27-0.71,0-0.98c0.27-0.27,0.71-0.27,0.98,0c0.27,0.27,0.27,0.71,0,0.98
					C353.95,330.38,353.52,330.38,353.25,330.11z"/>
			</g>
			<circle class="st1" cx="343.4" cy="317.57" r="1.9"/>
			<circle class="st1" cx="403.3" cy="375.76" r="1.9"/>
			<circle class="st1" cx="345.87" cy="312.76" r="1.9"/>
			<circle class="st1" cx="410.55" cy="316.46" r="1.9"/>
			<circle class="st1" cx="395.1" cy="310.04" r="1.9"/>
			<path class="st1" d="M389.4,309.28c-0.62-0.62-0.62-1.63,0-2.25c0.62-0.62,1.63-0.62,2.25,0c0.62,0.62,0.62,1.63,0,2.25
				C391.03,309.9,390.02,309.9,389.4,309.28z"/>
			<circle class="st1" cx="348.49" cy="308" r="1.9"/>
			<path class="st0" d="M380.35,380.26c0,0,24.14,7.41,15.78,15.78"/>
			<path class="st0" d="M383.38,376.31c0,0,15.58-7.92,15.44,0.27C398.68,384.77,383.38,376.31,383.38,376.31z"/>
			<path class="st0" d="M347.39,324.26c0,0,24.04,10.91,43.57-2.56c0,0-8.13,6.67-17.35-0.61
				C364.39,313.81,352.24,309.22,347.39,324.26z"/>
			<path class="st0" d="M383.44,340.27c8.15,2.55,14.97-5.87,19.81-11.8c5.41-6.62,17.23-7.9,17.23-7.9"/>
			<path class="st0" d="M378.58,317.31c0,0-14.7-4.76-17.5-19.21"/>
			<circle class="st1" cx="402.52" cy="313.17" r="5.14"/>
			<path class="st0" d="M385.97,308.93c0,0-7.91,7.01-17.84-7.76"/>
		</g>
		<path class="st0" d="M402.66,335.61c0.3,0.18,8.26,5.69,10.87,17.77c0,0-8.1,7.62-19.44,8.52"/>
		<path class="st0" d="M394.65,341.44c0.42,0.42,8.07,2.49,14.68,10.68c0,0-9.81,2.08-17.58,1.35"/>
	</g>
	<g>
		<g>
			<path class="st0" d="M334.28,334.25"/>
			<path class="st0" d="M334.28,334.25"/>
			<path class="st0" d="M328.62,328.59"/>
			<path class="st0" d="M318.02,317.99"/>
			<path class="st0" d="M377.32,377.29"/>
			<path class="st0" d="M369.13,369.14"/>
			<path class="st0" d="M338.57,338.54"/>
			<path class="st0" d="M373.52,373.49"/>
			<path class="st0" d="M396.12,396.03"/>
			<path class="st0" d="M380.35,380.26"/>
		</g>
	</g>
</g>
<g>
	<g>
		<g>
			<path class="st0" d="M287.64,337.78c0,0,8.54,13.07,22.66,3.99c14.12-9.08,23.98-7.52,23.98-7.52"/>
			<path class="st0" d="M334.29,334.25"/>
			<path class="st0" d="M318.02,317.98c0,0,4.43,16.77,10.6,10.6"/>
			<path class="st0" d="M313.59,322.41c0,0,6.8,8.58,2.59,10.36C311.98,334.55,313.59,322.41,313.59,322.41z"/>
			<path class="st0" d="M327.43,338.84c0,0,20.99,67.35,49.89,38.45"/>
			<path class="st0" d="M338.58,338.54c0,0,18.26,42.9,30.56,30.6"/>
			<path class="st0" d="M332.92,338.37c0,0,19.95,55.77,40.6,35.12"/>
			<circle class="st1" cx="322.64" cy="341.37" r="1.9"/>
			<g>
				<circle class="st1" cx="367.79" cy="389.21" r="1.9"/>
				<circle class="st1" cx="362.18" cy="389.74" r="1.9"/>
				<circle class="st1" cx="356.6" cy="388.61" r="1.9"/>
				<circle class="st1" cx="351.37" cy="386.07" r="1.9"/>
				<circle class="st1" cx="346.6" cy="382.43" r="1.9"/>
				<circle class="st1" cx="342.59" cy="378.43" r="1.9"/>
				<circle class="st1" cx="339.16" cy="373.86" r="1.9"/>
				<circle class="st1" cx="336.16" cy="368.84" r="1.9"/>
				<circle class="st1" cx="333.68" cy="364.28" r="1.47"/>
				<circle class="st1" cx="331.98" cy="360.16" r="1.23"/>
				<circle class="st1" cx="330.86" cy="356.51" r="0.95"/>
				<circle class="st1" cx="329.71" cy="353.64" r="0.69"/>
			</g>
			<circle class="st1" cx="317.67" cy="343.31" r="1.9"/>
			<circle class="st1" cx="375.85" cy="403.21" r="1.9"/>
			<circle class="st1" cx="312.85" cy="345.78" r="1.9"/>
			<circle class="st1" cx="316.55" cy="410.46" r="1.9"/>
			<circle class="st1" cx="310.13" cy="395" r="1.9"/>
			<path class="st1" d="M309.38,389.31c-0.62-0.62-1.63-0.62-2.25,0c-0.62,0.62-0.62,1.63,0,2.25c0.62,0.62,1.63,0.62,2.25,0
				C310,390.94,310,389.93,309.38,389.31z"/>
			<circle class="st1" cx="308.09" cy="348.4" r="1.9"/>
			<path class="st0" d="M380.35,380.25c0,0,7.41,24.14,15.78,15.78"/>
			<path class="st0" d="M376.4,383.29c0,0-7.92,15.58,0.27,15.44C384.86,398.59,376.4,383.29,376.4,383.29z"/>
			<path class="st0" d="M324.35,347.3c0,0,10.91,24.04-2.56,43.57c0,0,6.67-8.13-0.61-17.35C313.9,364.3,309.31,352.15,324.35,347.3
				z"/>
			<path class="st0" d="M340.36,383.35c2.55,8.15-5.87,14.97-11.8,19.81c-6.62,5.41-7.9,17.23-7.9,17.23"/>
			<path class="st0" d="M317.4,378.49c0,0-4.76-14.7-19.21-17.5"/>
			<circle class="st1" cx="313.26" cy="402.42" r="5.14"/>
			<path class="st0" d="M309.02,385.88c0,0,7.01-7.91-7.76-17.84"/>
		</g>
		<path class="st0" d="M335.7,402.57c0.18,0.3,5.69,8.26,17.77,10.87c0,0,7.62-8.1,8.52-19.44"/>
		<path class="st0" d="M341.53,394.56c0.42,0.42,2.49,8.07,10.68,14.68c0,0,2.08-9.81,1.35-17.58"/>
	</g>
	<g>
		<g>
			<path class="st0" d="M334.35,334.19"/>
			<path class="st0" d="M334.35,334.19"/>
			<path class="st0" d="M328.68,328.53"/>
			<path class="st0" d="M318.08,317.93"/>
			<path class="st0" d="M377.38,377.23"/>
			<path class="st0" d="M369.23,369.04"/>
			<path class="st0" d="M338.63,338.48"/>
			<path class="st0" d="M373.58,373.43"/>
			<path class="st1" d="M397.93,400.53c0.74,0.74,1.94,0.74,2.69,0l0,0c0,0,0,0,0,0c0,0,0,0,0,0l0,0c0.74-0.74,0.74-1.94,0-2.69
				c-0.74-0.74-1.94-0.74-2.69,0l0,0c0,0,0,0,0,0c0,0,0,0,0,0l0,0C397.19,398.58,397.19,399.79,397.93,400.53z"/>
			<path class="st0" d="M396.12,396.03"/>
			<path class="st0" d="M380.35,380.25"/>
		</g>
	</g>
</g>
<g>
	<g>
		<g>
			<path class="st0" d="M285.58,338.69c0,0,3.2,15.29-13.2,18.85c-16.4,3.56-22.27,11.64-22.27,11.64"/>
			<path class="st0" d="M250.1,369.17"/>
			<path class="st0" d="M250.1,346.17c0,0,8.73,15,0,15"/>
			<path class="st0" d="M256.37,346.17c0,0,1.26,10.88,5.49,9.16S256.37,346.17,256.37,346.17z"/>
			<path class="st0" d="M258.2,367.57c0,0,32.78,62.47-8.09,62.47"/>
			<path class="st0" d="M250.1,375.24c0,0,17.42,43.25,0.03,43.25"/>
			<path class="st0" d="M253.98,371.12c0,0,25.33,53.54-3.88,53.54"/>
			<path class="st1" d="M261.47,365.97c0-1.05,0.85-1.9,1.9-1.9c1.05,0,1.9,0.85,1.9,1.9c0,1.05-0.85,1.9-1.9,1.9
				C262.32,367.87,261.47,367.02,261.47,365.97z"/>
			<g>
				<path class="st1" d="M263.37,431.73c0-1.05,0.85-1.9,1.9-1.9c1.05,0,1.9,0.85,1.9,1.9c0,1.05-0.85,1.9-1.9,1.9
					C264.22,433.63,263.37,432.78,263.37,431.73z"/>
				<path class="st1" d="M267.72,428.14c0-1.05,0.85-1.9,1.9-1.9c1.05,0,1.9,0.85,1.9,1.9c0,1.05-0.85,1.9-1.9,1.9
					C268.57,430.04,267.72,429.19,267.72,428.14z"/>
				<path class="st1" d="M270.87,423.39c0-1.05,0.85-1.9,1.9-1.9c1.05,0,1.9,0.85,1.9,1.9c0,1.05-0.85,1.9-1.9,1.9
					C271.72,425.29,270.87,424.44,270.87,423.39z"/>
				<path class="st1" d="M272.77,417.9c0-1.05,0.85-1.9,1.9-1.9c1.05,0,1.9,0.85,1.9,1.9c0,1.05-0.85,1.9-1.9,1.9
					C273.62,419.8,272.77,418.95,272.77,417.9z"/>
				<path class="st1" d="M273.57,411.95c0-1.05,0.85-1.9,1.9-1.9c1.05,0,1.9,0.85,1.9,1.9c0,1.05-0.85,1.9-1.9,1.9
					C274.42,413.85,273.57,413,273.57,411.95z"/>
				<path class="st1" d="M273.57,406.29c0-1.05,0.85-1.9,1.9-1.9c1.05,0,1.9,0.85,1.9,1.9c0,1.05-0.85,1.9-1.9,1.9
					C274.42,408.19,273.57,407.34,273.57,406.29z"/>
				<path class="st1" d="M272.77,400.62c0-1.05,0.85-1.9,1.9-1.9c1.05,0,1.9,0.85,1.9,1.9c0,1.05-0.85,1.9-1.9,1.9
					C273.62,402.52,272.77,401.67,272.77,400.62z"/>
				<path class="st1" d="M271.34,394.96c0-1.05,0.85-1.9,1.9-1.9c1.05,0,1.9,0.85,1.9,1.9c0,1.05-0.85,1.9-1.9,1.9
					C272.19,396.86,271.34,396.01,271.34,394.96z"/>
				<path class="st1" d="M270.3,389.98c0-0.81,0.66-1.47,1.47-1.47c0.81,0,1.47,0.66,1.47,1.47c0,0.81-0.66,1.47-1.47,1.47
					C270.95,391.45,270.3,390.8,270.3,389.98z"/>
				<path class="st1" d="M268.82,385.86c0-0.68,0.55-1.23,1.23-1.23c0.68,0,1.23,0.55,1.23,1.23c0,0.68-0.55,1.23-1.23,1.23
					C269.37,387.09,268.82,386.54,268.82,385.86z"/>
				<path class="st1" d="M267.32,382.49c0-0.52,0.42-0.95,0.95-0.95s0.95,0.42,0.95,0.95c0,0.52-0.42,0.95-0.95,0.95
					S267.32,383.01,267.32,382.49z"/>
				<path class="st1" d="M266.36,379.65c0-0.38,0.31-0.69,0.69-0.69c0.38,0,0.69,0.31,0.69,0.69c0,0.38-0.31,0.69-0.69,0.69
					C266.67,380.34,266.36,380.03,266.36,379.65z"/>
			</g>
			<path class="st1" d="M266.36,363.83c0-1.05,0.85-1.9,1.9-1.9c1.05,0,1.9,0.85,1.9,1.9s-0.85,1.9-1.9,1.9
				C267.21,365.73,266.36,364.88,266.36,363.83z"/>
			<path class="st1" d="M267.58,447.33c0-1.05,0.85-1.9,1.9-1.9c1.05,0,1.9,0.85,1.9,1.9s-0.85,1.9-1.9,1.9
				C268.43,449.23,267.58,448.38,267.58,447.33z"/>
			<path class="st1" d="M271.51,362.17c0-1.05,0.85-1.9,1.9-1.9c1.05,0,1.9,0.85,1.9,1.9c0,1.05-0.85,1.9-1.9,1.9
				C272.36,364.07,271.51,363.22,271.51,362.17z"/>
			<path class="st1" d="M314.63,410.52c0-1.05,0.85-1.9,1.9-1.9c1.05,0,1.9,0.85,1.9,1.9c0,1.05-0.85,1.9-1.9,1.9
				C315.48,412.42,314.63,411.57,314.63,410.52z"/>
			<path class="st1" d="M308.24,395.05c0-1.05,0.85-1.9,1.9-1.9c1.05,0,1.9,0.85,1.9,1.9c0,1.05-0.85,1.9-1.9,1.9
				C309.1,396.95,308.24,396.1,308.24,395.05z"/>
			<path class="st1" d="M306.65,390.49c0-0.88,0.71-1.59,1.59-1.59c0.88,0,1.59,0.71,1.59,1.59c0,0.88-0.71,1.59-1.59,1.59
				C307.36,392.08,306.65,391.37,306.65,390.49z"/>
			<path class="st1" d="M276.73,360.65c0-1.05,0.85-1.9,1.9-1.9c1.05,0,1.9,0.85,1.9,1.9c0,1.05-0.85,1.9-1.9,1.9
				C277.58,362.55,276.73,361.7,276.73,360.65z"/>
			<path class="st0" d="M250.06,434.27c0,0,11.83,22.31,0,22.31"/>
			<path class="st0" d="M255,433.63c0,0,16.62,5.42,10.73,11.11C259.84,450.43,255,433.63,255,433.63z"/>
			<path class="st0" d="M266.36,371.37c0,0,9.28,24.71,32.62,29c0,0-10.47-1.03-11.84-12.7
				C285.77,376.01,280.42,364.17,266.36,371.37z"/>
			<path class="st0" d="M280.53,408.19c3.96,7.56,14.73,6.43,22.35,5.66c8.51-0.86,17.77,6.59,17.77,6.59"/>
			<path class="st0" d="M293.33,388.51c0,0-7.03-13.76,1.2-25.96"/>
			<path class="st1" d="M308.03,402.51c0-2.84,2.3-5.14,5.14-5.14c2.84,0,5.14,2.3,5.14,5.14c0,2.84-2.3,5.14-5.14,5.14
				C310.34,407.65,308.03,405.35,308.03,402.51z"/>
			<path class="st0" d="M304.48,387.81c0,0-10.55-0.64-7.12-18.1"/>
		</g>
		<path class="st0" d="M297.41,418.48c0.09,0.34,1.81,9.87-4.88,20.25c0,0-11.12-0.34-19.77-7.72"/>
		<path class="st0" d="M287.63,416.94c0,0.6,3.95,7.47,2.83,17.93c0,0-8.41-5.46-13.39-11.48"/>
	</g>
	<g>
		<g>
			<path class="st0" d="M250.02,369.17"/>
			<path class="st0" d="M250.02,369.17"/>
			<path class="st0" d="M250.02,361.17"/>
			<path class="st0" d="M250.02,346.17"/>
			<path class="st0" d="M250.02,430.04"/>
			<path class="st0" d="M249.99,418.48"/>
			<path class="st0" d="M250.02,375.24"/>
			<path class="st0" d="M250.02,424.66"/>
			<path class="st0" d="M250.06,456.58"/>
			<path class="st0" d="M250.06,434.27"/>
		</g>
	</g>
</g>
<g>
	<g>
		<g>
			<path class="st0" d="M214.55,338.69c0,0-3.2,15.29,13.2,18.85c16.4,3.56,22.27,11.64,22.27,11.64"/>
			<path class="st0" d="M250.03,369.17"/>
			<path class="st0" d="M250.03,346.17c0,0-8.73,15,0,15"/>
			<path class="st0" d="M243.76,346.17c0,0-1.26,10.88-5.49,9.16C234.04,353.62,243.76,346.17,243.76,346.17z"/>
			<path class="st0" d="M241.93,367.57c0,0-32.78,62.47,8.09,62.47"/>
			<path class="st0" d="M250.03,375.24c0,0-17.42,43.25-0.03,43.25"/>
			<path class="st0" d="M246.15,371.12c0,0-25.33,53.54,3.88,53.54"/>
			<path class="st1" d="M238.66,365.97c0-1.05-0.85-1.9-1.9-1.9c-1.05,0-1.9,0.85-1.9,1.9c0,1.05,0.85,1.9,1.9,1.9
				C237.81,367.87,238.66,367.02,238.66,365.97z"/>
			<g>
				<path class="st1" d="M236.76,431.73c0-1.05-0.85-1.9-1.9-1.9c-1.05,0-1.9,0.85-1.9,1.9c0,1.05,0.85,1.9,1.9,1.9
					C235.91,433.63,236.76,432.78,236.76,431.73z"/>
				<path class="st1" d="M232.41,428.14c0-1.05-0.85-1.9-1.9-1.9c-1.05,0-1.9,0.85-1.9,1.9c0,1.05,0.85,1.9,1.9,1.9
					C231.56,430.04,232.41,429.19,232.41,428.14z"/>
				<path class="st1" d="M229.26,423.39c0-1.05-0.85-1.9-1.9-1.9c-1.05,0-1.9,0.85-1.9,1.9c0,1.05,0.85,1.9,1.9,1.9
					C228.41,425.29,229.26,424.44,229.26,423.39z"/>
				<path class="st1" d="M227.36,417.9c0-1.05-0.85-1.9-1.9-1.9c-1.05,0-1.9,0.85-1.9,1.9c0,1.05,0.85,1.9,1.9,1.9
					C226.51,419.8,227.36,418.95,227.36,417.9z"/>
				<path class="st1" d="M226.56,411.95c0-1.05-0.85-1.9-1.9-1.9s-1.9,0.85-1.9,1.9c0,1.05,0.85,1.9,1.9,1.9
					S226.56,413,226.56,411.95z"/>
				<path class="st1" d="M226.56,406.29c0-1.05-0.85-1.9-1.9-1.9s-1.9,0.85-1.9,1.9c0,1.05,0.85,1.9,1.9,1.9
					S226.56,407.34,226.56,406.29z"/>
				<path class="st1" d="M227.36,400.62c0-1.05-0.85-1.9-1.9-1.9c-1.05,0-1.9,0.85-1.9,1.9c0,1.05,0.85,1.9,1.9,1.9
					C226.51,402.52,227.36,401.67,227.36,400.62z"/>
				<path class="st1" d="M228.79,394.96c0-1.05-0.85-1.9-1.9-1.9s-1.9,0.85-1.9,1.9c0,1.05,0.85,1.9,1.9,1.9
					S228.79,396.01,228.79,394.96z"/>
				<path class="st1" d="M229.83,389.98c0-0.81-0.66-1.47-1.47-1.47c-0.81,0-1.47,0.66-1.47,1.47c0,0.81,0.66,1.47,1.47,1.47
					C229.18,391.45,229.83,390.8,229.83,389.98z"/>
				<path class="st1" d="M231.31,385.86c0-0.68-0.55-1.23-1.23-1.23c-0.68,0-1.23,0.55-1.23,1.23c0,0.68,0.55,1.23,1.23,1.23
					C230.76,387.09,231.31,386.54,231.31,385.86z"/>
				<path class="st1" d="M232.81,382.49c0-0.52-0.42-0.95-0.95-0.95c-0.52,0-0.95,0.42-0.95,0.95c0,0.52,0.42,0.95,0.95,0.95
					C232.39,383.44,232.81,383.01,232.81,382.49z"/>
				<path class="st1" d="M233.77,379.65c0-0.38-0.31-0.69-0.69-0.69c-0.38,0-0.69,0.31-0.69,0.69c0,0.38,0.31,0.69,0.69,0.69
					C233.46,380.34,233.77,380.03,233.77,379.65z"/>
			</g>
			<path class="st1" d="M233.77,363.83c0-1.05-0.85-1.9-1.9-1.9c-1.05,0-1.9,0.85-1.9,1.9s0.85,1.9,1.9,1.9
				C232.92,365.73,233.77,364.88,233.77,363.83z"/>
			<path class="st1" d="M232.55,447.33c0-1.05-0.85-1.9-1.9-1.9s-1.9,0.85-1.9,1.9s0.85,1.9,1.9,1.9S232.55,448.38,232.55,447.33z"
				/>
			<path class="st1" d="M228.62,362.17c0-1.05-0.85-1.9-1.9-1.9s-1.9,0.85-1.9,1.9c0,1.05,0.85,1.9,1.9,1.9
				S228.62,363.22,228.62,362.17z"/>
			<path class="st1" d="M185.5,410.52c0-1.05-0.85-1.9-1.9-1.9c-1.05,0-1.9,0.85-1.9,1.9c0,1.05,0.85,1.9,1.9,1.9
				C184.65,412.42,185.5,411.57,185.5,410.52z"/>
			<path class="st1" d="M191.89,395.05c0-1.05-0.85-1.9-1.9-1.9c-1.05,0-1.9,0.85-1.9,1.9c0,1.05,0.85,1.9,1.9,1.9
				C191.04,396.95,191.89,396.1,191.89,395.05z"/>
			<path class="st1" d="M193.48,390.49c0-0.88-0.71-1.59-1.59-1.59c-0.88,0-1.59,0.71-1.59,1.59c0,0.88,0.71,1.59,1.59,1.59
				C192.77,392.08,193.48,391.37,193.48,390.49z"/>
			<path class="st1" d="M223.4,360.65c0-1.05-0.85-1.9-1.9-1.9c-1.05,0-1.9,0.85-1.9,1.9c0,1.05,0.85,1.9,1.9,1.9
				C222.55,362.55,223.4,361.7,223.4,360.65z"/>
			<path class="st0" d="M250.07,434.27c0,0-11.83,22.31,0,22.31"/>
			<path class="st0" d="M245.13,433.63c0,0-16.62,5.42-10.73,11.11C240.29,450.43,245.13,433.63,245.13,433.63z"/>
			<path class="st0" d="M233.77,371.37c0,0-9.28,24.71-32.62,29c0,0,10.47-1.03,11.84-12.7
				C214.36,376.01,219.71,364.17,233.77,371.37z"/>
			<path class="st0" d="M219.6,408.19c-3.96,7.56-14.73,6.43-22.35,5.66c-8.51-0.86-17.77,6.59-17.77,6.59"/>
			<path class="st0" d="M206.8,388.51c0,0,7.03-13.76-1.2-25.96"/>
			<path class="st1" d="M192.1,402.51c0-2.84-2.3-5.14-5.14-5.14c-2.84,0-5.14,2.3-5.14,5.14c0,2.84,2.3,5.14,5.14,5.14
				C189.79,407.65,192.1,405.35,192.1,402.51z"/>
			<path class="st0" d="M195.65,387.81c0,0,10.55-0.64,7.12-18.1"/>
		</g>
		<path class="st0" d="M202.72,418.48c-0.09,0.34-1.81,9.87,4.88,20.25c0,0,11.12-0.34,19.77-7.72"/>
		<path class="st0" d="M212.5,416.94c0,0.6-3.95,7.47-2.83,17.93c0,0,8.41-5.46,13.39-11.48"/>
	</g>
	<g>
		<g>
			<path class="st0" d="M250.11,369.17"/>
			<path class="st0" d="M250.11,369.17"/>
			<path class="st0" d="M250.11,361.17"/>
			<path class="st0" d="M250.11,346.17"/>
			<path class="st0" d="M250.11,430.04"/>
			<path class="st0" d="M250.14,418.48"/>
			<path class="st0" d="M250.11,375.24"/>
			<path class="st0" d="M250.11,424.66"/>
			<path class="st1" d="M248.17,461.04c0,1.05,0.85,1.9,1.9,1.9v0c0,0,0,0,0,0c0,0,0,0,0,0v0c1.05,0,1.9-0.85,1.9-1.9
				c0-1.05-0.85-1.9-1.9-1.9v0c0,0,0,0,0,0c0,0,0,0,0,0v0C249.01,459.15,248.17,460,248.17,461.04z"/>
			<path class="st0" d="M250.07,456.58"/>
			<path class="st0" d="M250.07,434.27"/>
		</g>
	</g>
</g>
<g>
	<g>
		<g>
			<path class="st0" d="M212.45,337.87c0,0-8.54,13.07-22.66,3.99c-14.12-9.08-23.98-7.52-23.98-7.52"/>
			<path class="st0" d="M165.8,334.34"/>
			<path class="st0" d="M182.07,318.08c0,0-4.43,16.77-10.6,10.6"/>
			<path class="st0" d="M186.5,322.5c0,0-6.8,8.58-2.59,10.36C188.11,334.64,186.5,322.5,186.5,322.5z"/>
			<path class="st0" d="M172.66,338.93c0,0-20.99,67.35-49.89,38.45"/>
			<path class="st0" d="M161.52,338.63c0,0-18.26,42.9-30.56,30.6"/>
			<path class="st0" d="M167.17,338.46c0,0-19.95,55.77-40.6,35.12"/>
			<circle class="st1" cx="177.45" cy="341.46" r="1.9"/>
			<g>
				<circle class="st1" cx="132.3" cy="389.3" r="1.9"/>
				<circle class="st1" cx="137.91" cy="389.84" r="1.9"/>
				<circle class="st1" cx="143.49" cy="388.7" r="1.9"/>
				<circle class="st1" cx="148.72" cy="386.17" r="1.9"/>
				<circle class="st1" cx="153.49" cy="382.52" r="1.9"/>
				<circle class="st1" cx="157.5" cy="378.52" r="1.9"/>
				<circle class="st1" cx="160.94" cy="373.95" r="1.9"/>
				<circle class="st1" cx="163.93" cy="368.93" r="1.9"/>
				<path class="st1" d="M165.37,363.33c0.57-0.57,1.51-0.57,2.08,0c0.57,0.57,0.57,1.51,0,2.08c-0.57,0.57-1.51,0.57-2.08,0
					C164.79,364.84,164.79,363.91,165.37,363.33z"/>
				<circle class="st1" cx="168.11" cy="360.25" r="1.23"/>
				<circle class="st1" cx="169.23" cy="356.6" r="0.95"/>
				<path class="st1" d="M169.89,353.25c0.27-0.27,0.71-0.27,0.98,0c0.27,0.27,0.27,0.71,0,0.98c-0.27,0.27-0.71,0.27-0.98,0
					C169.62,353.95,169.62,353.52,169.89,353.25z"/>
			</g>
			<circle class="st1" cx="182.43" cy="343.4" r="1.9"/>
			<circle class="st1" cx="124.24" cy="403.3" r="1.9"/>
			<circle class="st1" cx="187.24" cy="345.87" r="1.9"/>
			<circle class="st1" cx="183.54" cy="410.55" r="1.9"/>
			<circle class="st1" cx="189.96" cy="395.1" r="1.9"/>
			<path class="st1" d="M190.72,389.4c0.62-0.62,1.63-0.62,2.25,0c0.62,0.62,0.62,1.63,0,2.25c-0.62,0.62-1.63,0.62-2.25,0
				C190.1,391.03,190.1,390.02,190.72,389.4z"/>
			<circle class="st1" cx="192" cy="348.49" r="1.9"/>
			<path class="st0" d="M119.74,380.35c0,0-7.41,24.14-15.78,15.78"/>
			<path class="st0" d="M123.69,383.38c0,0,7.92,15.58-0.27,15.44C115.23,398.68,123.69,383.38,123.69,383.38z"/>
			<path class="st0" d="M175.74,347.39c0,0-10.91,24.04,2.56,43.57c0,0-6.67-8.13,0.61-17.35
				C186.19,364.39,190.78,352.24,175.74,347.39z"/>
			<path class="st0" d="M159.73,383.44c-2.55,8.15,5.87,14.97,11.8,19.81c6.62,5.41,7.9,17.23,7.9,17.23"/>
			<path class="st0" d="M182.69,378.58c0,0,4.76-14.7,19.21-17.5"/>
			<circle class="st1" cx="186.83" cy="402.52" r="5.14"/>
			<path class="st0" d="M191.07,385.97c0,0-7.01-7.91,7.76-17.84"/>
		</g>
		<path class="st0" d="M164.39,402.66c-0.18,0.3-5.69,8.26-17.77,10.87c0,0-7.62-8.1-8.52-19.44"/>
		<path class="st0" d="M158.56,394.65c-0.42,0.42-2.49,8.07-10.68,14.68c0,0-2.08-9.81-1.35-17.58"/>
	</g>
	<g>
		<g>
			<path class="st0" d="M165.75,334.28"/>
			<path class="st0" d="M165.75,334.28"/>
			<path class="st0" d="M171.41,328.62"/>
			<path class="st0" d="M182.01,318.02"/>
			<path class="st0" d="M122.71,377.32"/>
			<path class="st0" d="M130.86,369.13"/>
			<path class="st0" d="M161.46,338.57"/>
			<path class="st0" d="M126.51,373.52"/>
			<path class="st0" d="M103.97,396.12"/>
			<path class="st0" d="M119.74,380.35"/>
		</g>
	</g>
</g>
<g>
	<g>
		<g>
			<path class="st0" d="M162.22,287.64c0,0-13.07,8.55-3.99,22.66c9.08,14.12,7.52,23.98,7.52,23.98"/>
			<path class="st0" d="M165.75,334.29"/>
			<path class="st0" d="M182.02,318.02c0,0-16.77,4.43-10.6,10.6"/>
			<path class="st0" d="M177.59,313.59c0,0-8.58,6.8-10.36,2.59C165.45,311.98,177.59,313.59,177.59,313.59z"/>
			<path class="st0" d="M161.16,327.43c0,0-67.35,20.99-38.45,49.89"/>
			<path class="st0" d="M161.46,338.58c0,0-42.9,18.26-30.6,30.56"/>
			<path class="st0" d="M161.63,332.92c0,0-55.77,19.95-35.12,40.6"/>
			<circle class="st1" cx="158.63" cy="322.64" r="1.9"/>
			<g>
				<circle class="st1" cx="110.79" cy="367.79" r="1.9"/>
				<circle class="st1" cx="110.26" cy="362.18" r="1.9"/>
				<circle class="st1" cx="111.39" cy="356.6" r="1.9"/>
				<circle class="st1" cx="113.93" cy="351.37" r="1.9"/>
				<circle class="st1" cx="117.57" cy="346.6" r="1.9"/>
				<circle class="st1" cx="121.57" cy="342.59" r="1.9"/>
				<circle class="st1" cx="126.14" cy="339.16" r="1.9"/>
				<circle class="st1" cx="131.16" cy="336.16" r="1.9"/>
				<circle class="st1" cx="135.72" cy="333.68" r="1.47"/>
				<circle class="st1" cx="139.84" cy="331.98" r="1.23"/>
				<circle class="st1" cx="143.49" cy="330.86" r="0.95"/>
				<circle class="st1" cx="146.36" cy="329.71" r="0.69"/>
			</g>
			<circle class="st1" cx="156.69" cy="317.67" r="1.9"/>
			<circle class="st1" cx="96.79" cy="375.85" r="1.9"/>
			<circle class="st1" cx="154.22" cy="312.85" r="1.9"/>
			<circle class="st1" cx="89.54" cy="316.55" r="1.9"/>
			<circle class="st1" cx="105" cy="310.13" r="1.9"/>
			<path class="st1" d="M110.69,309.38c0.62-0.62,0.62-1.63,0-2.25c-0.62-0.62-1.63-0.62-2.25,0c-0.62,0.62-0.62,1.63,0,2.25
				C109.06,310,110.07,310,110.69,309.38z"/>
			<circle class="st1" cx="151.6" cy="308.09" r="1.9"/>
			<path class="st0" d="M119.75,380.35c0,0-24.14,7.41-15.78,15.78"/>
			<path class="st0" d="M116.71,376.4c0,0-15.58-7.92-15.44,0.27C101.41,384.86,116.71,376.4,116.71,376.4z"/>
			<path class="st0" d="M152.7,324.35c0,0-24.04,10.91-43.57-2.56c0,0,8.13,6.67,17.35-0.61C135.7,313.9,147.85,309.31,152.7,324.35
				z"/>
			<path class="st0" d="M116.65,340.36c-8.15,2.55-14.97-5.87-19.81-11.8c-5.41-6.62-17.23-7.9-17.23-7.9"/>
			<path class="st0" d="M121.51,317.4c0,0,14.7-4.76,17.5-19.21"/>
			<circle class="st1" cx="97.58" cy="313.26" r="5.14"/>
			<path class="st0" d="M114.12,309.02c0,0,7.91,7.01,17.84-7.76"/>
		</g>
		<path class="st0" d="M97.43,335.7c-0.3,0.18-8.26,5.69-10.87,17.77c0,0,8.1,7.62,19.44,8.52"/>
		<path class="st0" d="M105.44,341.53c-0.42,0.42-8.07,2.49-14.68,10.68c0,0,9.81,2.08,17.58,1.35"/>
	</g>
	<g>
		<g>
			<path class="st0" d="M165.81,334.35"/>
			<path class="st0" d="M165.81,334.35"/>
			<path class="st0" d="M171.47,328.68"/>
			<path class="st0" d="M182.07,318.08"/>
			<path class="st0" d="M122.77,377.38"/>
			<path class="st0" d="M130.96,369.23"/>
			<path class="st0" d="M161.52,338.63"/>
			<path class="st0" d="M126.57,373.58"/>
			<path class="st1" d="M99.47,397.93c-0.74,0.74-0.74,1.94,0,2.69l0,0c0,0,0,0,0,0c0,0,0,0,0,0l0,0c0.74,0.74,1.94,0.74,2.69,0
				c0.74-0.74,0.74-1.94,0-2.69l0,0c0,0,0,0,0,0c0,0,0,0,0,0l0,0C101.42,397.19,100.21,397.19,99.47,397.93z"/>
			<path class="st0" d="M103.97,396.12"/>
			<path class="st0" d="M119.75,380.35"/>
		</g>
	</g>
</g>
<g>
	<g>
		<g>
			<path class="st0" d="M161.31,285.58c0,0-15.29,3.2-18.85-13.2c-3.56-16.4-11.64-22.27-11.64-22.27"/>
			<path class="st0" d="M130.83,250.1"/>
			<path class="st0" d="M153.83,250.1c0,0-15,8.73-15,0"/>
			<path class="st0" d="M153.83,256.37c0,0-10.88,1.26-9.16,5.49C146.38,266.09,153.83,256.37,153.83,256.37z"/>
			<path class="st0" d="M132.43,258.2c0,0-62.47,32.78-62.47-8.09"/>
			<path class="st0" d="M124.76,250.1c0,0-43.25,17.42-43.25,0.03"/>
			<path class="st0" d="M128.88,253.98c0,0-53.54,25.33-53.54-3.88"/>
			<path class="st1" d="M134.03,261.47c1.05,0,1.9,0.85,1.9,1.9c0,1.05-0.85,1.9-1.9,1.9c-1.05,0-1.9-0.85-1.9-1.9
				C132.13,262.32,132.98,261.47,134.03,261.47z"/>
			<g>
				<path class="st1" d="M68.27,263.37c1.05,0,1.9,0.85,1.9,1.9c0,1.05-0.85,1.9-1.9,1.9c-1.05,0-1.9-0.85-1.9-1.9
					C66.37,264.22,67.22,263.37,68.27,263.37z"/>
				<path class="st1" d="M71.86,267.72c1.05,0,1.9,0.85,1.9,1.9c0,1.05-0.85,1.9-1.9,1.9c-1.05,0-1.9-0.85-1.9-1.9
					C69.96,268.57,70.81,267.72,71.86,267.72z"/>
				<path class="st1" d="M76.61,270.87c1.05,0,1.9,0.85,1.9,1.9c0,1.05-0.85,1.9-1.9,1.9c-1.05,0-1.9-0.85-1.9-1.9
					C74.71,271.72,75.56,270.87,76.61,270.87z"/>
				<path class="st1" d="M82.1,272.77c1.05,0,1.9,0.85,1.9,1.9s-0.85,1.9-1.9,1.9s-1.9-0.85-1.9-1.9S81.05,272.77,82.1,272.77z"/>
				<path class="st1" d="M88.05,273.57c1.05,0,1.9,0.85,1.9,1.9c0,1.05-0.85,1.9-1.9,1.9c-1.05,0-1.9-0.85-1.9-1.9
					C86.15,274.42,87,273.57,88.05,273.57z"/>
				<path class="st1" d="M93.71,273.57c1.05,0,1.9,0.85,1.9,1.9c0,1.05-0.85,1.9-1.9,1.9c-1.05,0-1.9-0.85-1.9-1.9
					C91.81,274.42,92.66,273.57,93.71,273.57z"/>
				<path class="st1" d="M99.38,272.77c1.05,0,1.9,0.85,1.9,1.9s-0.85,1.9-1.9,1.9c-1.05,0-1.9-0.85-1.9-1.9
					S98.33,272.77,99.38,272.77z"/>
				<path class="st1" d="M105.04,271.34c1.05,0,1.9,0.85,1.9,1.9c0,1.05-0.85,1.9-1.9,1.9c-1.05,0-1.9-0.85-1.9-1.9
					C103.14,272.19,103.99,271.34,105.04,271.34z"/>
				<path class="st1" d="M110.02,270.3c0.81,0,1.47,0.66,1.47,1.47c0,0.81-0.66,1.47-1.47,1.47c-0.81,0-1.47-0.66-1.47-1.47
					C108.55,270.95,109.2,270.3,110.02,270.3z"/>
				<path class="st1" d="M114.14,268.82c0.68,0,1.23,0.55,1.23,1.23c0,0.68-0.55,1.23-1.23,1.23c-0.68,0-1.23-0.55-1.23-1.23
					C112.91,269.37,113.46,268.82,114.14,268.82z"/>
				<path class="st1" d="M117.51,267.32c0.52,0,0.95,0.42,0.95,0.95s-0.42,0.95-0.95,0.95s-0.95-0.42-0.95-0.95
					S116.99,267.32,117.51,267.32z"/>
				<path class="st1" d="M120.35,266.36c0.38,0,0.69,0.31,0.69,0.69c0,0.38-0.31,0.69-0.69,0.69c-0.38,0-0.69-0.31-0.69-0.69
					C119.66,266.67,119.97,266.36,120.35,266.36z"/>
			</g>
			<path class="st1" d="M136.17,266.36c1.05,0,1.9,0.85,1.9,1.9c0,1.05-0.85,1.9-1.9,1.9s-1.9-0.85-1.9-1.9
				C134.27,267.21,135.12,266.36,136.17,266.36z"/>
			<path class="st1" d="M52.67,267.58c1.05,0,1.9,0.85,1.9,1.9c0,1.05-0.85,1.9-1.9,1.9c-1.05,0-1.9-0.85-1.9-1.9
				C50.77,268.43,51.62,267.58,52.67,267.58z"/>
			<path class="st1" d="M137.83,271.51c1.05,0,1.9,0.85,1.9,1.9s-0.85,1.9-1.9,1.9c-1.05,0-1.9-0.85-1.9-1.9
				S136.78,271.51,137.83,271.51z"/>
			<path class="st1" d="M89.48,314.63c1.05,0,1.9,0.85,1.9,1.9s-0.85,1.9-1.9,1.9c-1.05,0-1.9-0.85-1.9-1.9
				S88.43,314.63,89.48,314.63z"/>
			<path class="st1" d="M104.95,308.24c1.05,0,1.9,0.85,1.9,1.9s-0.85,1.9-1.9,1.9s-1.9-0.85-1.9-1.9S103.9,308.24,104.95,308.24z"
				/>
			<path class="st1" d="M109.51,306.65c0.88,0,1.59,0.71,1.59,1.59c0,0.88-0.71,1.59-1.59,1.59c-0.88,0-1.59-0.71-1.59-1.59
				C107.92,307.36,108.63,306.65,109.51,306.65z"/>
			<path class="st1" d="M139.35,276.73c1.05,0,1.9,0.85,1.9,1.9c0,1.05-0.85,1.9-1.9,1.9s-1.9-0.85-1.9-1.9
				C137.45,277.58,138.3,276.73,139.35,276.73z"/>
			<path class="st0" d="M65.73,250.06c0,0-22.31,11.83-22.31,0"/>
			<path class="st0" d="M66.37,255c0,0-5.42,16.62-11.11,10.73S66.37,255,66.37,255z"/>
			<path class="st0" d="M128.63,266.36c0,0-24.71,9.28-29,32.62c0,0,1.03-10.47,12.7-11.84
				C123.99,285.77,135.83,280.42,128.63,266.36z"/>
			<path class="st0" d="M91.81,280.53c-7.56,3.96-6.43,14.73-5.66,22.35c0.86,8.51-6.59,17.77-6.59,17.77"/>
			<path class="st0" d="M111.49,293.33c0,0,13.76-7.03,25.96,1.2"/>
			<path class="st1" d="M97.49,308.03c2.84,0,5.14,2.3,5.14,5.14c0,2.84-2.3,5.14-5.14,5.14c-2.84,0-5.14-2.3-5.14-5.14
				C92.35,310.34,94.65,308.03,97.49,308.03z"/>
			<path class="st0" d="M112.19,304.48c0,0,0.64-10.55,18.1-7.12"/>
		</g>
		<path class="st0" d="M81.52,297.41c-0.34,0.09-9.87,1.81-20.25-4.88c0,0,0.34-11.12,7.72-19.77"/>
		<path class="st0" d="M83.06,287.63c-0.6,0-7.47,3.95-17.93,2.83c0,0,5.46-8.41,11.48-13.39"/>
	</g>
	<g>
		<g>
			<path class="st0" d="M130.83,250.02"/>
			<path class="st0" d="M130.83,250.02"/>
			<path class="st0" d="M138.83,250.02"/>
			<path class="st0" d="M153.83,250.02"/>
			<path class="st0" d="M69.96,250.02"/>
			<path class="st0" d="M81.52,249.99"/>
			<path class="st0" d="M124.76,250.02"/>
			<path class="st0" d="M75.34,250.02"/>
			<path class="st0" d="M43.42,250.06"/>
			<path class="st0" d="M65.73,250.06"/>
		</g>
	</g>
</g>
<g>
	<g>
		<g>
			<path class="st0" d="M161.31,214.55c0,0-15.29-3.2-18.85,13.2c-3.56,16.4-11.64,22.27-11.64,22.27"/>
			<path class="st0" d="M130.83,250.03"/>
			<path class="st0" d="M153.83,250.03c0,0-15-8.73-15,0"/>
			<path class="st0" d="M153.83,243.76c0,0-10.88-1.26-9.16-5.49C146.38,234.04,153.83,243.76,153.83,243.76z"/>
			<path class="st0" d="M132.43,241.93c0,0-62.47-32.78-62.47,8.09"/>
			<path class="st0" d="M124.76,250.03c0,0-43.25-17.42-43.25-0.03"/>
			<path class="st0" d="M128.88,246.15c0,0-53.54-25.33-53.54,3.88"/>
			<path class="st1" d="M134.03,238.66c1.05,0,1.9-0.85,1.9-1.9c0-1.05-0.85-1.9-1.9-1.9c-1.05,0-1.9,0.85-1.9,1.9
				C132.13,237.81,132.98,238.66,134.03,238.66z"/>
			<g>
				<path class="st1" d="M68.27,236.76c1.05,0,1.9-0.85,1.9-1.9s-0.85-1.9-1.9-1.9c-1.05,0-1.9,0.85-1.9,1.9
					S67.22,236.76,68.27,236.76z"/>
				<path class="st1" d="M71.86,232.41c1.05,0,1.9-0.85,1.9-1.9c0-1.05-0.85-1.9-1.9-1.9c-1.05,0-1.9,0.85-1.9,1.9
					C69.96,231.56,70.81,232.41,71.86,232.41z"/>
				<path class="st1" d="M76.61,229.26c1.05,0,1.9-0.85,1.9-1.9s-0.85-1.9-1.9-1.9c-1.05,0-1.9,0.85-1.9,1.9
					S75.56,229.26,76.61,229.26z"/>
				<path class="st1" d="M82.1,227.36c1.05,0,1.9-0.85,1.9-1.9c0-1.05-0.85-1.9-1.9-1.9s-1.9,0.85-1.9,1.9
					C80.2,226.51,81.05,227.36,82.1,227.36z"/>
				<path class="st1" d="M88.05,226.56c1.05,0,1.9-0.85,1.9-1.9s-0.85-1.9-1.9-1.9c-1.05,0-1.9,0.85-1.9,1.9S87,226.56,88.05,226.56
					z"/>
				<path class="st1" d="M93.71,226.56c1.05,0,1.9-0.85,1.9-1.9s-0.85-1.9-1.9-1.9c-1.05,0-1.9,0.85-1.9,1.9
					S92.66,226.56,93.71,226.56z"/>
				<path class="st1" d="M99.38,227.36c1.05,0,1.9-0.85,1.9-1.9c0-1.05-0.85-1.9-1.9-1.9c-1.05,0-1.9,0.85-1.9,1.9
					C97.48,226.51,98.33,227.36,99.38,227.36z"/>
				<path class="st1" d="M105.04,228.79c1.05,0,1.9-0.85,1.9-1.9c0-1.05-0.85-1.9-1.9-1.9c-1.05,0-1.9,0.85-1.9,1.9
					C103.14,227.94,103.99,228.79,105.04,228.79z"/>
				<path class="st1" d="M110.02,229.83c0.81,0,1.47-0.66,1.47-1.47c0-0.81-0.66-1.47-1.47-1.47c-0.81,0-1.47,0.66-1.47,1.47
					C108.55,229.18,109.2,229.83,110.02,229.83z"/>
				<path class="st1" d="M114.14,231.31c0.68,0,1.23-0.55,1.23-1.23c0-0.68-0.55-1.23-1.23-1.23c-0.68,0-1.23,0.55-1.23,1.23
					C112.91,230.76,113.46,231.31,114.14,231.31z"/>
				<path class="st1" d="M117.51,232.81c0.52,0,0.95-0.42,0.95-0.95c0-0.52-0.42-0.95-0.95-0.95s-0.95,0.42-0.95,0.95
					C116.56,232.39,116.99,232.81,117.51,232.81z"/>
				<path class="st1" d="M120.35,233.77c0.38,0,0.69-0.31,0.69-0.69c0-0.38-0.31-0.69-0.69-0.69c-0.38,0-0.69,0.31-0.69,0.69
					C119.66,233.46,119.97,233.77,120.35,233.77z"/>
			</g>
			<path class="st1" d="M136.17,233.77c1.05,0,1.9-0.85,1.9-1.9c0-1.05-0.85-1.9-1.9-1.9s-1.9,0.85-1.9,1.9
				C134.27,232.92,135.12,233.77,136.17,233.77z"/>
			<path class="st1" d="M52.67,232.55c1.05,0,1.9-0.85,1.9-1.9s-0.85-1.9-1.9-1.9c-1.05,0-1.9,0.85-1.9,1.9
				S51.62,232.55,52.67,232.55z"/>
			<path class="st1" d="M137.83,228.62c1.05,0,1.9-0.85,1.9-1.9c0-1.05-0.85-1.9-1.9-1.9c-1.05,0-1.9,0.85-1.9,1.9
				C135.93,227.77,136.78,228.62,137.83,228.62z"/>
			<path class="st1" d="M89.48,185.5c1.05,0,1.9-0.85,1.9-1.9c0-1.05-0.85-1.9-1.9-1.9c-1.05,0-1.9,0.85-1.9,1.9
				C87.58,184.65,88.43,185.5,89.48,185.5z"/>
			<path class="st1" d="M104.95,191.89c1.05,0,1.9-0.85,1.9-1.9c0-1.05-0.85-1.9-1.9-1.9s-1.9,0.85-1.9,1.9
				C103.05,191.04,103.9,191.89,104.95,191.89z"/>
			<path class="st1" d="M109.51,193.48c0.88,0,1.59-0.71,1.59-1.59c0-0.88-0.71-1.59-1.59-1.59c-0.88,0-1.59,0.71-1.59,1.59
				C107.92,192.77,108.63,193.48,109.51,193.48z"/>
			<path class="st1" d="M139.35,223.4c1.05,0,1.9-0.85,1.9-1.9c0-1.05-0.85-1.9-1.9-1.9s-1.9,0.85-1.9,1.9
				C137.45,222.55,138.3,223.4,139.35,223.4z"/>
			<path class="st0" d="M65.73,250.07c0,0-22.31-11.83-22.31,0"/>
			<path class="st0" d="M66.37,245.13c0,0-5.42-16.62-11.11-10.73C49.57,240.29,66.37,245.13,66.37,245.13z"/>
			<path class="st0" d="M128.63,233.77c0,0-24.71-9.28-29-32.62c0,0,1.03,10.47,12.7,11.84
				C123.99,214.36,135.83,219.71,128.63,233.77z"/>
			<path class="st0" d="M91.81,219.6c-7.56-3.96-6.43-14.73-5.66-22.35c0.86-8.51-6.59-17.77-6.59-17.77"/>
			<path class="st0" d="M111.49,206.8c0,0,13.76,7.03,25.96-1.2"/>
			<path class="st1" d="M97.49,192.1c2.84,0,5.14-2.3,5.14-5.14c0-2.84-2.3-5.14-5.14-5.14c-2.84,0-5.14,2.3-5.14,5.14
				C92.35,189.79,94.65,192.1,97.49,192.1z"/>
			<path class="st0" d="M112.19,195.65c0,0,0.64,10.55,18.1,7.12"/>
		</g>
		<path class="st0" d="M81.52,202.72c-0.34-0.09-9.87-1.81-20.25,4.88c0,0,0.34,11.12,7.72,19.77"/>
		<path class="st0" d="M83.06,212.5c-0.6,0-7.47-3.95-17.93-2.83c0,0,5.46,8.41,11.48,13.39"/>
	</g>
	<g>
		<g>
			<path class="st0" d="M130.83,250.11"/>
			<path class="st0" d="M130.83,250.11"/>
			<path class="st0" d="M138.83,250.11"/>
			<path class="st0" d="M153.83,250.11"/>
			<path class="st0" d="M69.96,250.11"/>
			<path class="st0" d="M81.52,250.14"/>
			<path class="st0" d="M124.76,250.11"/>
			<path class="st0" d="M75.34,250.11"/>
			<path class="st1" d="M38.96,248.17c-1.05,0-1.9,0.85-1.9,1.9h0c0,0,0,0,0,0c0,0,0,0,0,0h0c0,1.05,0.85,1.9,1.9,1.9
				c1.05,0,1.9-0.85,1.9-1.9h0c0,0,0,0,0,0c0,0,0,0,0,0h0C40.85,249.01,40,248.17,38.96,248.17z"/>
			<path class="st0" d="M43.42,250.07"/>
			<path class="st0" d="M65.73,250.07"/>
		</g>
	</g>
</g>
<g>
	<g>
		<g>
			<path class="st0" d="M162.13,212.45c0,0-13.07-8.55-3.99-22.66c9.08-14.12,7.52-23.98,7.52-23.98"/>
			<path class="st0" d="M165.66,165.8"/>
			<path class="st0" d="M181.92,182.07c0,0-16.77-4.43-10.6-10.6"/>
			<path class="st0" d="M177.5,186.5c0,0-8.58-6.8-10.36-2.59S177.5,186.5,177.5,186.5z"/>
			<path class="st0" d="M161.07,172.66c0,0-67.35-20.99-38.45-49.89"/>
			<path class="st0" d="M161.37,161.52c0,0-42.9-18.26-30.6-30.56"/>
			<path class="st0" d="M161.54,167.17c0,0-55.77-19.95-35.12-40.6"/>
			<circle class="st1" cx="158.54" cy="177.45" r="1.9"/>
			<g>
				<circle class="st1" cx="110.7" cy="132.3" r="1.9"/>
				<circle class="st1" cx="110.16" cy="137.91" r="1.9"/>
				<circle class="st1" cx="111.3" cy="143.49" r="1.9"/>
				<circle class="st1" cx="113.83" cy="148.72" r="1.9"/>
				<circle class="st1" cx="117.48" cy="153.49" r="1.9"/>
				<circle class="st1" cx="121.48" cy="157.5" r="1.9"/>
				<circle class="st1" cx="126.05" cy="160.94" r="1.9"/>
				<circle class="st1" cx="131.07" cy="163.93" r="1.9"/>
				<path class="st1" d="M136.67,165.37c0.57,0.57,0.57,1.51,0,2.08c-0.57,0.57-1.51,0.57-2.08,0c-0.57-0.57-0.57-1.51,0-2.08
					C135.16,164.79,136.09,164.79,136.67,165.37z"/>
				<circle class="st1" cx="139.75" cy="168.11" r="1.23"/>
				<circle class="st1" cx="143.4" cy="169.23" r="0.95"/>
				<path class="st1" d="M146.75,169.89c0.27,0.27,0.27,0.71,0,0.98c-0.27,0.27-0.71,0.27-0.98,0c-0.27-0.27-0.27-0.71,0-0.98
					C146.05,169.62,146.48,169.62,146.75,169.89z"/>
			</g>
			<circle class="st1" cx="156.6" cy="182.43" r="1.9"/>
			<circle class="st1" cx="96.7" cy="124.24" r="1.9"/>
			<circle class="st1" cx="154.13" cy="187.24" r="1.9"/>
			<circle class="st1" cx="89.45" cy="183.54" r="1.9"/>
			<circle class="st1" cx="104.9" cy="189.96" r="1.9"/>
			<path class="st1" d="M110.6,190.72c0.62,0.62,0.62,1.63,0,2.25c-0.62,0.62-1.63,0.62-2.25,0c-0.62-0.62-0.62-1.63,0-2.25
				C108.97,190.1,109.98,190.1,110.6,190.72z"/>
			<circle class="st1" cx="151.51" cy="192" r="1.9"/>
			<path class="st0" d="M119.65,119.74c0,0-24.14-7.41-15.78-15.78"/>
			<path class="st0" d="M116.62,123.69c0,0-15.58,7.92-15.44-0.27S116.62,123.69,116.62,123.69z"/>
			<path class="st0" d="M152.61,175.74c0,0-24.04-10.91-43.57,2.56c0,0,8.13-6.67,17.35,0.61
				C135.61,186.19,147.76,190.78,152.61,175.74z"/>
			<path class="st0" d="M116.56,159.73c-8.15-2.55-14.97,5.87-19.81,11.8c-5.41,6.62-17.23,7.9-17.23,7.9"/>
			<path class="st0" d="M121.42,182.69c0,0,14.7,4.76,17.5,19.21"/>
			<circle class="st1" cx="97.48" cy="186.83" r="5.14"/>
			<path class="st0" d="M114.03,191.07c0,0,7.91-7.01,17.84,7.76"/>
		</g>
		<path class="st0" d="M97.34,164.39c-0.3-0.18-8.26-5.69-10.87-17.77c0,0,8.1-7.62,19.44-8.52"/>
		<path class="st0" d="M105.35,158.56c-0.42-0.42-8.07-2.49-14.68-10.68c0,0,9.81-2.08,17.58-1.35"/>
	</g>
	<g>
		<g>
			<path class="st0" d="M165.72,165.75"/>
			<path class="st0" d="M165.72,165.75"/>
			<path class="st0" d="M171.38,171.41"/>
			<path class="st0" d="M181.98,182.01"/>
			<path class="st0" d="M122.68,122.71"/>
			<path class="st0" d="M130.87,130.86"/>
			<path class="st0" d="M161.43,161.46"/>
			<path class="st0" d="M126.48,126.51"/>
			<path class="st0" d="M103.88,103.97"/>
			<path class="st0" d="M119.65,119.74"/>
		</g>
	</g>
</g>
<g>
	<g>
		<g>
			<path class="st0" d="M212.36,162.22c0,0-8.54-13.07-22.66-3.99c-14.12,9.08-23.98,7.52-23.98,7.52"/>
			<path class="st0" d="M165.71,165.75"/>
			<path class="st0" d="M181.98,182.02c0,0-4.43-16.77-10.6-10.6"/>
			<path class="st0" d="M186.41,177.59c0,0-6.8-8.58-2.59-10.36C188.02,165.45,186.41,177.59,186.41,177.59z"/>
			<path class="st0" d="M172.57,161.16c0,0-20.99-67.35-49.89-38.45"/>
			<path class="st0" d="M161.43,161.46c0,0-18.26-42.9-30.56-30.6"/>
			<path class="st0" d="M167.08,161.63c0,0-19.95-55.77-40.6-35.12"/>
			<circle class="st1" cx="177.36" cy="158.63" r="1.9"/>
			<g>
				<circle class="st1" cx="132.21" cy="110.79" r="1.9"/>
				<circle class="st1" cx="137.82" cy="110.26" r="1.9"/>
				<circle class="st1" cx="143.4" cy="111.39" r="1.9"/>
				<circle class="st1" cx="148.63" cy="113.93" r="1.9"/>
				<circle class="st1" cx="153.4" cy="117.57" r="1.9"/>
				<circle class="st1" cx="157.41" cy="121.57" r="1.9"/>
				<circle class="st1" cx="160.84" cy="126.14" r="1.9"/>
				<circle class="st1" cx="163.84" cy="131.16" r="1.9"/>
				<circle class="st1" cx="166.32" cy="135.72" r="1.47"/>
				<circle class="st1" cx="168.02" cy="139.84" r="1.23"/>
				<circle class="st1" cx="169.14" cy="143.49" r="0.95"/>
				<circle class="st1" cx="170.29" cy="146.36" r="0.69"/>
			</g>
			<circle class="st1" cx="182.33" cy="156.69" r="1.9"/>
			<circle class="st1" cx="124.15" cy="96.79" r="1.9"/>
			<circle class="st1" cx="187.15" cy="154.22" r="1.9"/>
			<circle class="st1" cx="183.45" cy="89.54" r="1.9"/>
			<circle class="st1" cx="189.87" cy="105" r="1.9"/>
			<path class="st1" d="M190.62,110.69c0.62,0.62,1.63,0.62,2.25,0c0.62-0.62,0.62-1.63,0-2.25c-0.62-0.62-1.63-0.62-2.25,0
				C190,109.06,190,110.07,190.62,110.69z"/>
			<circle class="st1" cx="191.91" cy="151.6" r="1.9"/>
			<path class="st0" d="M119.65,119.75c0,0-7.41-24.14-15.78-15.78"/>
			<path class="st0" d="M123.6,116.71c0,0,7.92-15.58-0.27-15.44C115.14,101.41,123.6,116.71,123.6,116.71z"/>
			<path class="st0" d="M175.65,152.7c0,0-10.91-24.04,2.56-43.57c0,0-6.67,8.13,0.61,17.35C186.1,135.7,190.69,147.85,175.65,152.7
				z"/>
			<path class="st0" d="M159.64,116.65c-2.55-8.15,5.87-14.97,11.8-19.81c6.62-5.41,7.9-17.23,7.9-17.23"/>
			<path class="st0" d="M182.6,121.51c0,0,4.76,14.7,19.21,17.5"/>
			<circle class="st1" cx="186.74" cy="97.58" r="5.14"/>
			<path class="st0" d="M190.98,114.12c0,0-7.01,7.91,7.76,17.84"/>
		</g>
		<path class="st0" d="M164.3,97.43c-0.18-0.3-5.69-8.26-17.77-10.87c0,0-7.62,8.1-8.52,19.44"/>
		<path class="st0" d="M158.47,105.44c-0.42-0.42-2.49-8.07-10.68-14.68c0,0-2.08,9.81-1.35,17.58"/>
	</g>
	<g>
		<g>
			<path class="st0" d="M165.65,165.81"/>
			<path class="st0" d="M165.65,165.81"/>
			<path class="st0" d="M171.32,171.47"/>
			<path class="st0" d="M181.92,182.07"/>
			<path class="st0" d="M122.62,122.77"/>
			<path class="st0" d="M130.77,130.96"/>
			<path class="st0" d="M161.37,161.52"/>
			<path class="st0" d="M126.42,126.57"/>
			<path class="st1" d="M102.07,99.47c-0.74-0.74-1.94-0.74-2.69,0l0,0c0,0,0,0,0,0c0,0,0,0,0,0l0,0c-0.74,0.74-0.74,1.94,0,2.69
				c0.74,0.74,1.94,0.74,2.69,0l0,0c0,0,0,0,0,0c0,0,0,0,0,0l0,0C102.81,101.42,102.81,100.21,102.07,99.47z"/>
			<path class="st0" d="M103.88,103.97"/>
			<path class="st0" d="M119.65,119.75"/>
		</g>
	</g>
</g>
</svg>
